<svg width="473" height="83" viewBox="0 0 473 90" fill="none" xmlns="http://www.w3.org/2000/svg">
<g filter="url(#filter0_d_249_2)">
<path d="M16.768 74.368C15.1893 74.368 13.7387 74.0053 12.416 73.28C11.0933 72.5973 10.0267 71.6587 9.216 70.464C8.40534 69.2267 8 67.8613 8 66.368C8 65.088 8.27734 63.9147 8.832 62.848C9.42934 61.7387 10.304 60.864 11.456 60.224C12.608 59.5413 14.0373 59.2 15.744 59.2C17.6213 59.2 19.4347 59.4347 21.184 59.904C22.9333 60.3307 24.6187 60.9067 26.24 61.632C27.904 62.3573 29.5467 63.1253 31.168 63.936C32.7893 64.7467 34.3893 65.5147 35.968 66.24C37.5893 66.9653 39.2107 67.5627 40.832 68.032C42.4533 68.4587 44.1173 68.672 45.824 68.672C47.9573 68.672 50.0907 68.2453 52.224 67.392C54.3573 66.496 56.4053 65.28 58.368 63.744C60.3733 62.208 62.208 60.3947 63.872 58.304C65.5787 56.2133 67.072 53.952 68.352 51.52C69.632 49.088 70.6133 46.5493 71.296 43.904C72.0213 41.2587 72.384 38.6133 72.384 35.968C72.384 32.2987 71.808 29.0773 70.656 26.304C69.5467 23.488 67.968 21.1627 65.92 19.328C63.872 17.4507 61.4187 16.0427 58.56 15.104C55.744 14.1653 52.608 13.696 49.152 13.696C46.8053 13.696 44.5867 13.8667 42.496 14.208C40.448 14.5067 38.528 14.976 36.736 15.616C34.9867 16.256 33.3653 17.0667 31.872 18.048C30.3787 18.9867 29.0347 20.096 27.84 21.376C26.6453 22.6133 25.5787 24.0427 24.64 25.664C24.256 26.3467 23.808 26.7307 23.296 26.816C22.784 26.8587 22.1227 26.7093 21.312 26.368C20.7147 26.0267 20.3093 25.6213 20.096 25.152C19.9253 24.64 19.9893 24.0853 20.288 23.488C21.312 21.4827 22.5707 19.6907 24.064 18.112C25.5573 16.4907 27.2213 15.0613 29.056 13.824C30.9333 12.5867 32.9813 11.5627 35.2 10.752C37.4187 9.94133 39.7867 9.32267 42.304 8.896C44.8213 8.46933 47.4453 8.256 50.176 8.256C54.272 8.256 58.0267 8.85333 61.44 10.048C64.896 11.2427 67.8827 13.0133 70.4 15.36C72.9173 17.664 74.8587 20.5227 76.224 23.936C77.5893 27.3067 78.272 31.2107 78.272 35.648C78.272 38.8053 77.8453 41.9627 76.992 45.12C76.1813 48.2347 75.0293 51.2213 73.536 54.08C72.0853 56.9387 70.336 59.584 68.288 62.016C66.2827 64.4053 64.0427 66.496 61.568 68.288C59.136 70.08 56.5547 71.488 53.824 72.512C51.136 73.4933 48.3627 73.984 45.504 73.984C43.2853 73.984 41.088 73.664 38.912 73.024C36.736 72.384 34.624 71.5947 32.576 70.656C30.528 69.6747 28.5653 68.6933 26.688 67.712C24.8107 66.7307 23.0187 65.92 21.312 65.28C19.6053 64.64 18.0053 64.32 16.512 64.32C15.616 64.32 14.9547 64.5333 14.528 64.96C14.1013 65.344 13.888 65.8773 13.888 66.56C13.888 67.4987 14.272 68.1813 15.04 68.608C15.808 69.0347 16.5547 69.248 17.28 69.248C18.6027 69.248 19.648 68.992 20.416 68.48C21.2267 67.9253 21.9307 67.0293 22.528 65.792C23.1253 64.512 23.744 62.8053 24.384 60.672L36.928 21.824C37.1413 21.2267 37.504 20.7787 38.016 20.48C38.528 20.1813 39.2533 20.032 40.192 20.032C41.216 20.032 41.9413 20.2027 42.368 20.544C42.7947 20.8427 42.9013 21.312 42.688 21.952L30.016 61.248C28.992 64.5333 27.8613 67.136 26.624 69.056C25.4293 70.9333 24.0427 72.2987 22.464 73.152C20.928 73.9627 19.0293 74.368 16.768 74.368ZM87.275 74.304C85.867 74.304 84.6083 73.92 83.499 73.152C82.4323 72.384 81.6003 71.296 81.003 69.888C80.4057 68.48 80.107 66.816 80.107 64.896C80.107 62.9333 80.4057 60.8213 81.003 58.56C81.6003 56.2987 82.4963 54.08 83.691 51.904C84.8857 49.728 86.3363 47.744 88.043 45.952C89.7497 44.16 91.7123 42.7307 93.931 41.664C96.1923 40.5547 98.667 40 101.355 40C102.976 40 104.726 40.2987 106.603 40.896C108.48 41.4507 110.166 42.24 111.659 43.264L110.507 47.68C108.416 46.5707 106.56 45.8667 104.939 45.568C103.318 45.2267 101.824 45.056 100.459 45.056C98.6243 45.056 96.939 45.4827 95.403 46.336C93.9097 47.1893 92.5657 48.32 91.371 49.728C90.219 51.0933 89.2377 52.6293 88.427 54.336C87.6163 56 86.9977 57.664 86.571 59.328C86.1443 60.992 85.931 62.5067 85.931 63.872C85.931 64.9387 86.059 65.8773 86.315 66.688C86.571 67.4987 86.9337 68.1173 87.403 68.544C87.915 68.9707 88.491 69.184 89.131 69.184C90.7097 69.184 92.5017 68.3307 94.507 66.624C96.5123 64.8747 98.6457 62.3147 100.907 58.944C103.211 55.5733 105.558 51.4773 107.947 46.656L110.315 49.024C107.542 54.7413 104.79 59.4773 102.059 63.232C99.371 66.944 96.7897 69.7173 94.315 71.552C91.8403 73.3867 89.4937 74.304 87.275 74.304ZM106.987 74.304C105.067 74.304 103.638 73.9413 102.699 73.216C101.803 72.5333 101.227 71.6587 100.971 70.592C100.758 69.4827 100.758 68.3307 100.971 67.136C101.184 65.8987 101.483 64.768 101.867 63.744L109.035 42.304C109.334 41.4507 109.675 40.896 110.059 40.64C110.486 40.384 111.104 40.256 111.915 40.256C113.238 40.256 114.07 40.4693 114.411 40.896C114.795 41.28 114.838 41.8987 114.539 42.752L107.499 63.68C106.774 65.8987 106.432 67.4347 106.475 68.288C106.56 69.0987 107.094 69.504 108.075 69.504C108.672 69.504 109.12 69.76 109.419 70.272C109.718 70.7413 109.824 71.296 109.739 71.936C109.696 72.5333 109.44 73.0667 108.971 73.536C108.544 74.048 107.883 74.304 106.987 74.304ZM107.12 74.304C106.437 74.304 106.01 74.048 105.84 73.536C105.626 73.0667 105.626 72.5333 105.84 71.936C106.01 71.296 106.309 70.7413 106.736 70.272C107.162 69.76 107.632 69.504 108.144 69.504C108.912 69.504 109.744 69.2053 110.64 68.608C111.493 68.0107 112.389 67.136 113.328 65.984C114.224 64.832 115.184 63.4453 116.208 61.824C117.189 60.16 118.213 58.2827 119.28 56.192C121.2 52.5227 122.906 49.6 124.4 47.424C125.936 45.248 127.344 43.6267 128.624 42.56C129.904 41.4933 131.12 40.8107 132.272 40.512C133.466 40.1707 134.661 40 135.856 40C136.282 40 136.56 40.256 136.688 40.768C136.816 41.2373 136.794 41.792 136.624 42.432C136.453 43.0293 136.154 43.584 135.728 44.096C135.344 44.5653 134.832 44.8 134.192 44.8C133.722 44.8 133.168 44.928 132.528 45.184C131.93 45.3973 131.226 45.9093 130.416 46.72C129.648 47.488 128.73 48.6613 127.664 50.24C126.64 51.8187 125.445 53.9307 124.08 56.576C122.074 60.5867 120.24 63.7867 118.576 66.176C116.912 68.5227 115.397 70.2933 114.032 71.488C112.666 72.64 111.429 73.3867 110.32 73.728C109.168 74.112 108.101 74.304 107.12 74.304ZM131.376 74.432C129.2 74.432 127.493 74.0053 126.256 73.152C125.061 72.2987 124.229 71.1893 123.76 69.824C123.29 68.416 123.12 66.9013 123.248 65.28C123.418 63.616 123.76 61.9733 124.272 60.352L128.816 46.336C128.944 45.9093 128.922 45.5467 128.752 45.248C128.624 44.9493 128.304 44.8 127.792 44.8C127.28 44.8 126.917 44.5653 126.704 44.096C126.533 43.584 126.512 43.0293 126.64 42.432C126.768 41.792 127.066 41.2373 127.536 40.768C128.005 40.256 128.624 40 129.392 40C130.97 40 132.122 40.2987 132.848 40.896C133.616 41.4507 134.085 42.1973 134.256 43.136C134.426 44.032 134.426 44.992 134.256 46.016C134.085 47.04 133.872 47.9787 133.616 48.832L129.84 60.352C129.498 61.4187 129.221 62.4853 129.008 63.552C128.794 64.576 128.73 65.536 128.816 66.432C128.901 67.2853 129.242 67.9893 129.84 68.544C130.437 69.056 131.376 69.312 132.656 69.312C133.765 69.312 134.874 69.0347 135.984 68.48C137.136 67.8827 138.245 67.072 139.312 66.048C140.421 64.9813 141.466 63.7867 142.448 62.464C143.429 61.1413 144.282 59.712 145.008 58.176C145.776 56.64 146.394 55.0827 146.864 53.504C147.162 52.5227 147.418 51.5627 147.632 50.624C147.888 49.6427 148.016 48.6827 148.016 47.744C147.205 47.104 146.586 46.464 146.16 45.824C145.733 45.184 145.52 44.416 145.52 43.52C145.52 42.496 145.84 41.664 146.48 41.024C147.162 40.3413 148.016 40 149.04 40C149.765 40 150.384 40.1707 150.896 40.512C151.408 40.8533 151.834 41.3227 152.176 41.92C152.517 42.5173 152.752 43.2213 152.88 44.032C153.05 44.8427 153.136 45.7173 153.136 46.656C153.136 49.0027 152.773 51.456 152.048 54.016C151.322 56.5333 150.277 59.008 148.912 61.44C147.589 63.872 146.01 66.0693 144.176 68.032C142.384 69.9947 140.4 71.552 138.224 72.704C136.048 73.856 133.765 74.432 131.376 74.432ZM157.137 48.192C155.217 48.192 153.681 47.9787 152.529 47.552C151.377 47.0827 150.182 46.3787 148.945 45.44C148.433 45.0987 148.177 44.6933 148.177 44.224C148.177 43.7547 148.326 43.328 148.625 42.944C148.881 42.5173 149.201 42.2187 149.585 42.048C149.969 41.8347 150.31 41.856 150.609 42.112C151.334 42.6667 152.209 43.0933 153.233 43.392C154.257 43.6907 155.707 43.84 157.585 43.84C159.206 43.84 160.849 43.712 162.513 43.456C164.219 43.1573 165.734 42.7947 167.057 42.368C168.422 41.8987 169.382 41.408 169.937 40.896C170.363 40.4693 170.79 40.448 171.217 40.832C171.643 41.1733 171.899 41.664 171.985 42.304C172.07 42.944 171.814 43.52 171.217 44.032C169.51 45.3547 167.355 46.3787 164.753 47.104C162.193 47.8293 159.654 48.192 157.137 48.192ZM166.737 74.304C164.859 74.304 163.451 73.9627 162.513 73.28C161.617 72.5973 161.062 71.7227 160.849 70.656C160.635 69.5467 160.635 68.3947 160.849 67.2C161.062 65.9627 161.339 64.8107 161.681 63.744L168.721 42.304C169.019 41.4507 169.361 40.896 169.745 40.64C170.171 40.384 170.79 40.256 171.601 40.256C172.923 40.256 173.755 40.4693 174.097 40.896C174.481 41.28 174.523 41.8987 174.225 42.752L167.377 63.68C166.609 65.9413 166.246 67.4773 166.289 68.288C166.374 69.0987 166.907 69.504 167.889 69.504C168.486 69.504 168.934 69.76 169.233 70.272C169.531 70.7413 169.638 71.296 169.553 71.936C169.51 72.5333 169.254 73.0667 168.785 73.536C168.315 74.048 167.633 74.304 166.737 74.304ZM175.569 30.4C174.715 30.4 173.99 30.1227 173.393 29.568C172.795 29.0133 172.497 28.2027 172.497 27.136C172.497 25.984 172.859 24.896 173.585 23.872C174.353 22.848 175.526 22.336 177.105 22.336C178.001 22.336 178.747 22.6133 179.345 23.168C179.942 23.68 180.241 24.4907 180.241 25.6C180.241 26.752 179.857 27.84 179.089 28.864C178.363 29.888 177.19 30.4 175.569 30.4ZM166.429 74.304C165.832 74.304 165.384 74.048 165.085 73.536C164.786 73.0667 164.68 72.5333 164.765 71.936C164.808 71.296 165.064 70.7413 165.533 70.272C166.002 69.76 166.685 69.504 167.581 69.504C168.69 69.504 169.864 69.0987 171.101 68.288C172.338 67.4773 173.618 66.3467 174.941 64.896C176.221 63.4453 177.544 61.7387 178.909 59.776C180.274 57.8133 181.661 55.68 183.069 53.376C183.41 52.8213 183.88 52.5867 184.477 52.672C185.074 52.7573 185.565 53.0347 185.949 53.504C186.333 53.9307 186.354 54.4213 186.013 54.976C184.178 58.176 182.429 60.992 180.765 63.424C179.144 65.856 177.565 67.8827 176.029 69.504C174.45 71.0827 172.893 72.2773 171.357 73.088C169.778 73.8987 168.136 74.304 166.429 74.304ZM186.589 74.304C185.138 74.304 183.858 73.92 182.749 73.152C181.682 72.384 180.85 71.296 180.253 69.888C179.656 68.48 179.357 66.816 179.357 64.896C179.357 62.9333 179.656 60.8213 180.253 58.56C180.85 56.2987 181.746 54.08 182.941 51.904C184.136 49.728 185.586 47.744 187.293 45.952C189.042 44.16 191.026 42.7307 193.245 41.664C195.464 40.5547 197.938 40 200.669 40C201.906 40 203.229 40.1707 204.637 40.512C206.088 40.8533 207.474 41.344 208.797 41.984L219.293 10.304C219.549 9.45067 219.869 8.896 220.253 8.64C220.68 8.384 221.32 8.256 222.173 8.256C223.496 8.256 224.328 8.46933 224.669 8.896C225.053 9.28 225.096 9.89867 224.797 10.752L206.301 66.624C206.045 67.52 205.96 68.2027 206.045 68.672C206.13 69.0987 206.429 69.312 206.941 69.312C207.368 69.312 207.773 69.184 208.157 68.928C208.541 68.672 208.968 68.288 209.437 67.776C209.949 67.264 210.546 66.6027 211.229 65.792C211.57 65.3653 211.912 65.1307 212.253 65.088C212.594 65.0027 213 65.1307 213.469 65.472C214.152 65.8987 214.557 66.3253 214.685 66.752C214.856 67.1787 214.813 67.6053 214.557 68.032C213.661 69.44 212.722 70.6133 211.741 71.552C210.802 72.448 209.8 73.1093 208.733 73.536C207.709 73.9627 206.621 74.176 205.469 74.176C203.933 74.176 202.76 73.792 201.949 73.024C201.138 72.256 200.712 71.104 200.669 69.568C200.626 68.032 200.946 66.1333 201.629 63.872C201.672 63.744 201.693 63.616 201.693 63.488C201.736 63.3173 201.778 63.168 201.821 63.04C199.986 65.5573 198.173 67.6693 196.381 69.376C194.632 71.04 192.925 72.2773 191.261 73.088C189.597 73.8987 188.04 74.304 186.589 74.304ZM185.181 63.872C185.181 64.9387 185.309 65.8773 185.565 66.688C185.821 67.4987 186.184 68.1173 186.653 68.544C187.165 68.9707 187.741 69.184 188.381 69.184C189.874 69.184 191.602 68.416 193.565 66.88C195.528 65.3013 197.597 63.0187 199.773 60.032C201.992 57.0027 204.232 53.312 206.493 48.96L207.261 46.464C205.81 45.8667 204.445 45.4827 203.165 45.312C201.928 45.1413 200.797 45.056 199.773 45.056C197.938 45.056 196.253 45.4827 194.717 46.336C193.181 47.1893 191.816 48.32 190.621 49.728C189.469 51.0933 188.488 52.6293 187.677 54.336C186.866 56 186.248 57.664 185.821 59.328C185.394 60.992 185.181 62.5067 185.181 63.872ZM267.193 74.304C263.993 74.304 261.134 73.8133 258.617 72.832C256.099 71.808 253.945 70.336 252.153 68.416C250.403 66.496 249.059 64.1707 248.121 61.44C247.225 58.6667 246.777 55.5307 246.777 52.032C246.777 48.9173 247.139 45.696 247.865 42.368C248.59 38.9973 249.657 35.6907 251.065 32.448C252.473 29.1627 254.222 26.0693 256.313 23.168C258.403 20.224 260.793 17.6427 263.481 15.424C266.211 13.2053 269.241 11.456 272.569 10.176C275.939 8.896 279.587 8.256 283.513 8.256C286.243 8.256 288.654 8.55466 290.745 9.152C292.878 9.70667 294.755 10.56 296.377 11.712C297.998 12.8213 299.385 14.208 300.537 15.872C300.878 16.384 300.942 16.832 300.729 17.216C300.558 17.6 300.153 18.0267 299.513 18.496C298.915 18.9227 298.403 19.1573 297.977 19.2C297.593 19.2 297.081 18.9227 296.441 18.368C294.99 16.8747 293.155 15.7227 290.937 14.912C288.761 14.1013 285.966 13.696 282.553 13.696C279.694 13.696 276.963 14.2293 274.361 15.296C271.801 16.3627 269.411 17.8347 267.193 19.712C264.974 21.5467 262.969 23.7013 261.177 26.176C259.427 28.6507 257.913 31.296 256.633 34.112C255.395 36.928 254.435 39.8507 253.753 42.88C253.113 45.8667 252.793 48.7893 252.793 51.648C252.793 54.592 253.134 57.1733 253.817 59.392C254.499 61.568 255.481 63.4027 256.761 64.896C258.041 66.3893 259.598 67.52 261.433 68.288C263.31 69.0133 265.443 69.376 267.833 69.376C268.473 69.376 268.921 69.632 269.177 70.144C269.433 70.6133 269.518 71.1893 269.433 71.872C269.347 72.512 269.113 73.0667 268.729 73.536C268.345 74.048 267.833 74.304 267.193 74.304ZM267.165 74.304C266.525 74.304 266.077 74.048 265.821 73.536C265.565 73.0667 265.479 72.512 265.565 71.872C265.65 71.1893 265.885 70.6133 266.269 70.144C266.653 69.632 267.165 69.376 267.805 69.376C270.237 69.376 272.733 68.9707 275.293 68.16C277.853 67.3493 280.477 66.112 283.165 64.448C285.853 62.784 288.583 60.7147 291.357 58.24C294.087 55.7653 296.818 52.864 299.549 49.536C299.975 48.9813 300.466 48.832 301.021 49.088C301.618 49.344 302.045 49.7707 302.301 50.368C302.599 50.9227 302.557 51.456 302.173 51.968C299.357 55.68 296.477 58.944 293.533 61.76C290.631 64.576 287.687 66.9227 284.701 68.8C281.714 70.6347 278.749 72.0213 275.805 72.96C272.861 73.856 269.981 74.304 267.165 74.304ZM308.061 74.432C305.415 74.432 303.175 73.8987 301.341 72.832C299.506 71.7653 298.119 70.2933 297.181 68.416C296.285 66.496 295.837 64.3413 295.837 61.952C295.837 59.6907 296.242 57.3013 297.053 54.784C297.863 52.224 299.058 49.8347 300.637 47.616C302.258 45.3547 304.263 43.52 306.653 42.112C309.085 40.704 311.901 40 315.101 40C317.746 40 319.965 40.512 321.757 41.536C323.591 42.5173 324.957 43.9253 325.853 45.76C326.791 47.552 327.261 49.6427 327.261 52.032C327.261 53.7387 327.005 55.616 326.493 57.664C326.023 59.6693 325.277 61.6747 324.253 63.68C323.271 65.6427 322.013 67.4347 320.477 69.056C318.941 70.6773 317.127 71.9787 315.037 72.96C312.989 73.9413 310.663 74.432 308.061 74.432ZM308.701 69.312C310.791 69.312 312.626 68.7573 314.205 67.648C315.783 66.5387 317.106 65.1307 318.173 63.424C319.239 61.6747 320.05 59.8613 320.605 57.984C321.159 56.064 321.437 54.2933 321.437 52.672C321.437 51.008 321.159 49.6213 320.605 48.512C320.05 47.4027 319.261 46.5707 318.237 46.016C317.213 45.4187 315.997 45.12 314.589 45.12C312.455 45.12 310.578 45.6747 308.957 46.784C307.335 47.8507 305.97 49.2373 304.861 50.944C303.794 52.6507 302.983 54.4427 302.429 56.32C301.874 58.1973 301.597 59.9253 301.597 61.504C301.597 63.168 301.874 64.5973 302.429 65.792C303.026 66.944 303.858 67.8187 304.925 68.416C305.991 69.0133 307.25 69.312 308.701 69.312ZM339.201 60.416C337.75 60.416 336.001 59.968 333.953 59.072C331.905 58.1333 329.857 56.6613 327.809 54.656C325.718 52.608 323.862 49.9627 322.241 46.72C322.027 46.2507 322.113 45.76 322.497 45.248C322.838 44.736 323.286 44.3947 323.841 44.224C324.395 44.0107 324.822 44.16 325.121 44.672C326.614 47.2747 328.214 49.408 329.921 51.072C331.585 52.736 333.227 53.9733 334.849 54.784C336.513 55.5947 338.006 56 339.329 56C339.713 56 339.99 56.2347 340.161 56.704C340.374 57.1307 340.459 57.6427 340.417 58.24C340.417 58.7947 340.31 59.3067 340.097 59.776C339.883 60.2027 339.585 60.416 339.201 60.416ZM335.874 56.192C337.154 56.3627 338.669 56.2773 340.418 55.936C342.21 55.5947 343.959 55.04 345.666 54.272C347.373 53.504 348.781 52.544 349.89 51.392C351.042 50.24 351.618 48.96 351.618 47.552C351.618 46.7413 351.383 46.144 350.914 45.76C350.445 45.3333 349.762 45.12 348.866 45.12C348.269 45.12 347.842 44.864 347.586 44.352C347.33 43.84 347.245 43.2427 347.33 42.56C347.415 41.8773 347.693 41.28 348.162 40.768C348.674 40.256 349.378 40 350.274 40C351.17 40 352.045 40.1493 352.898 40.448C353.751 40.7467 354.498 41.1733 355.138 41.728C355.821 42.2827 356.354 42.944 356.738 43.712C357.122 44.48 357.314 45.3333 357.314 46.272C357.314 48.32 356.738 50.24 355.586 52.032C354.434 53.7813 352.855 55.3387 350.85 56.704C348.845 58.0267 346.541 59.0293 343.938 59.712C341.378 60.3947 338.69 60.6507 335.874 60.48V56.192ZM346.217 74.304C344.382 74.304 342.782 73.9413 341.417 73.216C340.052 72.4907 338.921 71.488 338.025 70.208C337.086 68.8853 336.404 67.392 335.977 65.728C335.508 64.064 335.273 62.3147 335.273 60.48C335.273 58.0053 335.614 55.5733 336.297 53.184C336.937 50.752 337.897 48.5547 339.177 46.592C340.457 44.5867 342.057 42.9867 343.977 41.792C345.854 40.5973 348.009 40 350.441 40C350.825 40 351.081 40.256 351.209 40.768C351.294 41.28 351.273 41.8773 351.145 42.56C350.974 43.2427 350.74 43.84 350.441 44.352C350.1 44.864 349.737 45.12 349.353 45.12C348.201 45.12 347.177 45.4613 346.281 46.144C345.385 46.8267 344.596 47.744 343.913 48.896C343.23 50.0053 342.676 51.264 342.249 52.672C341.78 54.0373 341.438 55.424 341.225 56.832C340.969 58.24 340.841 59.5413 340.841 60.736C340.841 61.9733 340.99 63.104 341.289 64.128C341.588 65.152 342.057 66.048 342.697 66.816C343.294 67.584 344.041 68.1813 344.937 68.608C345.833 68.992 346.878 69.184 348.073 69.184C350.249 69.184 352.489 68.736 354.793 67.84C357.054 66.944 359.337 65.7067 361.641 64.128C363.945 62.5493 366.228 60.7147 368.489 58.624C370.75 56.4907 372.926 54.208 375.017 51.776C377.108 49.3013 379.07 46.7413 380.905 44.096C382.782 41.4507 384.489 38.8267 386.025 36.224C387.561 33.6213 388.884 31.104 389.993 28.672C391.102 26.24 391.956 24 392.553 21.952C393.193 19.8613 393.513 18.0693 393.513 16.576C393.513 16.1067 393.769 15.744 394.281 15.488C394.836 15.232 395.476 15.104 396.201 15.104C396.926 15.104 397.545 15.232 398.057 15.488C398.612 15.744 398.889 16.1067 398.889 16.576C398.889 18.0693 398.569 19.904 397.929 22.08C397.289 24.2133 396.372 26.6027 395.177 29.248C393.982 31.8933 392.553 34.6453 390.889 37.504C389.225 40.3627 387.348 43.264 385.257 46.208C383.209 49.1093 380.99 51.9253 378.601 54.656C376.212 57.3867 373.716 59.9467 371.113 62.336C368.51 64.7253 365.822 66.816 363.049 68.608C360.318 70.4 357.545 71.808 354.729 72.832C351.87 73.8133 349.033 74.304 346.217 74.304ZM375.081 74.304C372.692 74.304 370.793 73.5787 369.385 72.128C368.02 70.6347 367.252 68.5653 367.081 65.92C366.91 63.232 367.401 60.096 368.553 56.512L379.817 22.272C381.396 17.28 383.145 13.6533 385.065 11.392C387.028 9.13067 389.374 8 392.105 8C393.47 8 394.644 8.36267 395.625 9.088C396.649 9.81333 397.438 10.816 397.993 12.096C398.59 13.376 398.889 14.8907 398.889 16.64C398.889 17.4507 398.612 18.048 398.057 18.432C397.545 18.816 396.926 19.008 396.201 19.008C395.476 19.008 394.836 18.816 394.281 18.432C393.769 18.048 393.513 17.4507 393.513 16.64C393.513 15.9147 393.449 15.296 393.321 14.784C393.193 14.272 392.98 13.8667 392.681 13.568C392.382 13.2693 391.934 13.12 391.337 13.12C390.654 13.12 389.993 13.4187 389.353 14.016C388.756 14.5707 388.116 15.616 387.433 17.152C386.75 18.6453 385.918 20.7787 384.937 23.552L373.801 57.6C372.948 60.2027 372.478 62.4 372.393 64.192C372.35 65.984 372.67 67.328 373.353 68.224C374.036 69.0773 375.017 69.504 376.297 69.504C376.894 69.504 377.342 69.76 377.641 70.272C377.94 70.7413 378.046 71.296 377.961 71.936C377.876 72.5333 377.598 73.0667 377.129 73.536C376.66 74.048 375.977 74.304 375.081 74.304ZM375.117 74.304C374.306 74.304 373.773 74.048 373.517 73.536C373.218 73.0667 373.154 72.5333 373.325 71.936C373.453 71.296 373.773 70.7413 374.285 70.272C374.797 69.76 375.458 69.504 376.269 69.504C377.037 69.504 377.997 69.0987 379.149 68.288C380.258 67.4347 381.645 66.0907 383.309 64.256C384.973 62.3787 386.978 59.9253 389.325 56.896C391.671 53.8667 394.445 50.1547 397.645 45.76C398.157 45.0773 398.69 44.8 399.245 44.928C399.842 45.056 400.247 45.4187 400.461 46.016C400.717 46.6133 400.589 47.2747 400.077 48C396.578 53.12 393.527 57.3867 390.925 60.8C388.365 64.1707 386.146 66.8587 384.269 68.864C382.349 70.8267 380.663 72.2347 379.213 73.088C377.762 73.8987 376.397 74.304 375.117 74.304ZM418.381 74.304C416.503 74.304 415.095 73.9413 414.157 73.216C413.261 72.5333 412.706 71.6587 412.493 70.592C412.279 69.4827 412.279 68.3307 412.493 67.136C412.706 65.8987 412.983 64.768 413.325 63.744L417.677 51.2C418.061 50.0907 418.295 49.088 418.381 48.192C418.509 47.2533 418.359 46.5067 417.933 45.952C417.549 45.3973 416.759 45.12 415.565 45.12C414.114 45.12 412.493 45.76 410.701 47.04C408.951 48.32 407.138 50.112 405.261 52.416C403.383 54.72 401.527 57.4507 399.693 60.608C397.901 63.7227 396.237 67.1573 394.701 70.912L394.381 65.152C396.002 61.184 397.73 57.664 399.565 54.592C401.399 51.4773 403.319 48.832 405.325 46.656C407.33 44.48 409.357 42.8373 411.405 41.728C413.495 40.576 415.586 40 417.677 40C419.639 40 421.154 40.4907 422.221 41.472C423.33 42.4107 423.927 43.8187 424.013 45.696C424.141 47.5733 423.735 49.8987 422.797 52.672L419.021 63.68C418.253 65.8987 417.89 67.4347 417.933 68.288C418.018 69.0987 418.573 69.504 419.597 69.504C420.194 69.504 420.621 69.76 420.877 70.272C421.175 70.7413 421.282 71.296 421.197 71.936C421.154 72.5333 420.898 73.0667 420.429 73.536C419.959 74.048 419.277 74.304 418.381 74.304ZM391.181 74.176C390.498 74.176 389.858 74.0267 389.261 73.728C388.663 73.4293 388.493 72.8747 388.749 72.064L405.005 22.272C406.583 17.28 408.333 13.6533 410.253 11.392C412.215 9.13067 414.562 8 417.293 8C418.701 8 419.895 8.32 420.877 8.96C421.901 9.6 422.69 10.496 423.245 11.648C423.842 12.7573 424.141 14.0373 424.141 15.488C424.141 16.64 423.97 17.8773 423.629 19.2C423.287 20.48 422.797 21.8453 422.157 23.296C421.559 24.704 420.791 26.1973 419.853 27.776C418.957 29.312 417.89 30.8907 416.653 32.512C415.458 34.0907 414.135 35.712 412.685 37.376C411.234 38.9973 409.634 40.6613 407.885 42.368C406.178 44.032 404.343 45.7173 402.381 47.424L394.189 72.512C394.018 73.0667 393.719 73.472 393.293 73.728C392.866 74.0267 392.162 74.176 391.181 74.176ZM404.749 40.192C406.114 38.784 407.394 37.3547 408.589 35.904C409.826 34.4533 410.957 33.0027 411.981 31.552C413.047 30.1013 414.007 28.6933 414.861 27.328C415.714 25.92 416.418 24.5547 416.973 23.232C417.57 21.9093 418.018 20.6507 418.317 19.456C418.658 18.2187 418.829 17.0667 418.829 16C418.829 15.4027 418.743 14.8907 418.573 14.464C418.402 14.0373 418.146 13.7173 417.805 13.504C417.463 13.248 417.037 13.12 416.525 13.12C415.842 13.12 415.181 13.4187 414.541 14.016C413.901 14.5707 413.239 15.616 412.557 17.152C411.874 18.688 411.063 20.8853 410.125 23.744L404.749 40.192ZM418.367 74.304C417.769 74.304 417.321 74.048 417.023 73.536C416.724 73.0667 416.617 72.5333 416.703 71.936C416.745 71.296 417.001 70.7413 417.471 70.272C417.94 69.76 418.623 69.504 419.519 69.504C420.628 69.504 421.801 69.0987 423.039 68.288C424.276 67.4773 425.556 66.3467 426.879 64.896C428.159 63.4453 429.481 61.7387 430.847 59.776C432.212 57.8133 433.599 55.68 435.007 53.376C435.348 52.8213 435.817 52.5867 436.415 52.672C437.012 52.7573 437.503 53.0347 437.887 53.504C438.271 53.9307 438.292 54.4213 437.951 54.976C436.116 58.176 434.367 60.992 432.703 63.424C431.081 65.856 429.503 67.8827 427.967 69.504C426.388 71.0827 424.831 72.2773 423.295 73.088C421.716 73.8987 420.073 74.304 418.367 74.304ZM445.311 74.432C442.665 74.432 440.425 73.8987 438.591 72.832C436.756 71.7653 435.369 70.2933 434.431 68.416C433.535 66.496 433.087 64.3413 433.087 61.952C433.087 59.6907 433.492 57.3013 434.303 54.784C435.113 52.224 436.308 49.8347 437.887 47.616C439.508 45.3547 441.513 43.52 443.903 42.112C446.335 40.704 449.151 40 452.351 40C454.996 40 457.215 40.512 459.007 41.536C460.841 42.5173 462.207 43.9253 463.103 45.76C464.041 47.552 464.511 49.6427 464.511 52.032C464.511 53.7387 464.255 55.616 463.743 57.664C463.273 59.6693 462.527 61.6747 461.503 63.68C460.521 65.6427 459.263 67.4347 457.727 69.056C456.191 70.6773 454.377 71.9787 452.287 72.96C450.239 73.9413 447.913 74.432 445.311 74.432ZM445.951 69.312C448.041 69.312 449.876 68.7573 451.455 67.648C453.033 66.5387 454.356 65.1307 455.423 63.424C456.489 61.6747 457.3 59.8613 457.855 57.984C458.409 56.064 458.687 54.2933 458.687 52.672C458.687 51.008 458.409 49.6213 457.855 48.512C457.3 47.4027 456.511 46.5707 455.487 46.016C454.463 45.4187 453.247 45.12 451.839 45.12C449.705 45.12 447.828 45.6747 446.207 46.784C444.585 47.8507 443.22 49.2373 442.111 50.944C441.044 52.6507 440.233 54.4427 439.679 56.32C439.124 58.1973 438.847 59.9253 438.847 61.504C438.847 63.168 439.124 64.5973 439.679 65.792C440.276 66.944 441.108 67.8187 442.175 68.416C443.241 69.0133 444.5 69.312 445.951 69.312Z" fill="#C9D1D9"/>
</g>
<defs>
<filter id="filter0_d_249_2" x="0" y="0" width="472.51" height="82.432" filterUnits="userSpaceOnUse" color-interpolation-filters="sRGB">
<feFlood flood-opacity="0" result="BackgroundImageFix"/>
<feColorMatrix in="SourceAlpha" type="matrix" values="0 0 0 0 0 0 0 0 0 0 0 0 0 0 0 0 0 0 127 0" result="hardAlpha"/>
<feOffset/>
<feGaussianBlur stdDeviation="4"/>
<feComposite in2="hardAlpha" operator="out"/>
<feColorMatrix type="matrix" values="0 0 0 0 0.0509804 0 0 0 0 0.0666667 0 0 0 0 0.0901961 0 0 0 0.74 0"/>
<feBlend mode="normal" in2="BackgroundImageFix" result="effect1_dropShadow_249_2"/>
<feBlend mode="normal" in="SourceGraphic" in2="effect1_dropShadow_249_2" result="shape"/>
</filter>
</defs>
</svg>
