<svg width="457" height="83" viewBox="0 0 457 83" fill="none" xmlns="http://www.w3.org/2000/svg">
<path d="M8.76801 66.368C7.18934 66.368 5.73867 66.0053 4.416 65.28C3.09334 64.5973 2.02667 63.6587 1.216 62.464C0.405338 61.2267 4.52995e-06 59.8613 4.52995e-06 58.368C4.52995e-06 57.088 0.277338 55.9147 0.832005 54.848C1.42934 53.7387 2.304 52.864 3.456 52.224C4.608 51.5413 6.03734 51.2 7.74401 51.2C9.62134 51.2 11.4347 51.4347 13.184 51.904C14.9333 52.3307 16.6187 52.9067 18.24 53.632C19.904 54.3573 21.5467 55.1253 23.168 55.936C24.7893 56.7467 26.3893 57.5147 27.968 58.24C29.5893 58.9653 31.2107 59.5627 32.832 60.032C34.4533 60.4587 36.1173 60.672 37.824 60.672C39.9573 60.672 42.0907 60.2453 44.224 59.392C46.3573 58.496 48.4053 57.28 50.368 55.744C52.3733 54.208 54.208 52.3947 55.872 50.304C57.5787 48.2133 59.072 45.952 60.352 43.52C61.632 41.088 62.6133 38.5493 63.296 35.904C64.0213 33.2587 64.384 30.6133 64.384 27.968C64.384 24.2987 63.808 21.0773 62.656 18.304C61.5467 15.488 59.968 13.1627 57.92 11.328C55.872 9.45067 53.4187 8.04267 50.56 7.104C47.744 6.16533 44.608 5.696 41.152 5.696C38.8053 5.696 36.5867 5.86667 34.496 6.208C32.448 6.50667 30.528 6.976 28.736 7.616C26.9867 8.256 25.3653 9.06667 23.872 10.048C22.3787 10.9867 21.0347 12.096 19.84 13.376C18.6453 14.6133 17.5787 16.0427 16.64 17.664C16.256 18.3467 15.808 18.7307 15.296 18.816C14.784 18.8587 14.1227 18.7093 13.312 18.368C12.7147 18.0267 12.3093 17.6213 12.096 17.152C11.9253 16.64 11.9893 16.0853 12.288 15.488C13.312 13.4827 14.5707 11.6907 16.064 10.112C17.5573 8.49067 19.2213 7.06133 21.056 5.824C22.9333 4.58667 24.9813 3.56267 27.2 2.752C29.4187 1.94133 31.7867 1.32267 34.304 0.896004C36.8213 0.469332 39.4453 0.255997 42.176 0.255997C46.272 0.255997 50.0267 0.853331 53.44 2.048C56.896 3.24267 59.8827 5.01333 62.4 7.36C64.9173 9.664 66.8587 12.5227 68.224 15.936C69.5893 19.3067 70.272 23.2107 70.272 27.648C70.272 30.8053 69.8453 33.9627 68.992 37.12C68.1813 40.2347 67.0293 43.2213 65.536 46.08C64.0853 48.9387 62.336 51.584 60.288 54.016C58.2827 56.4053 56.0427 58.496 53.568 60.288C51.136 62.08 48.5547 63.488 45.824 64.512C43.136 65.4933 40.3627 65.984 37.504 65.984C35.2853 65.984 33.088 65.664 30.912 65.024C28.736 64.384 26.624 63.5947 24.576 62.656C22.528 61.6747 20.5653 60.6933 18.688 59.712C16.8107 58.7307 15.0187 57.92 13.312 57.28C11.6053 56.64 10.0053 56.32 8.512 56.32C7.616 56.32 6.95467 56.5333 6.528 56.96C6.10134 57.344 5.88801 57.8773 5.88801 58.56C5.88801 59.4987 6.27201 60.1813 7.04 60.608C7.80801 61.0347 8.55467 61.248 9.28 61.248C10.6027 61.248 11.648 60.992 12.416 60.48C13.2267 59.9253 13.9307 59.0293 14.528 57.792C15.1253 56.512 15.744 54.8053 16.384 52.672L28.928 13.824C29.1413 13.2267 29.504 12.7787 30.016 12.48C30.528 12.1813 31.2533 12.032 32.192 12.032C33.216 12.032 33.9413 12.2027 34.368 12.544C34.7947 12.8427 34.9013 13.312 34.688 13.952L22.016 53.248C20.992 56.5333 19.8613 59.136 18.624 61.056C17.4293 62.9333 16.0427 64.2987 14.464 65.152C12.928 65.9627 11.0293 66.368 8.76801 66.368ZM79.275 66.304C77.867 66.304 76.6083 65.92 75.499 65.152C74.4323 64.384 73.6003 63.296 73.003 61.888C72.4057 60.48 72.107 58.816 72.107 56.896C72.107 54.9333 72.4057 52.8213 73.003 50.56C73.6003 48.2987 74.4963 46.08 75.691 43.904C76.8857 41.728 78.3363 39.744 80.043 37.952C81.7497 36.16 83.7123 34.7307 85.931 33.664C88.1923 32.5547 90.667 32 93.355 32C94.9763 32 96.7257 32.2987 98.603 32.896C100.48 33.4507 102.166 34.24 103.659 35.264L102.507 39.68C100.416 38.5707 98.5603 37.8667 96.939 37.568C95.3177 37.2267 93.8243 37.056 92.459 37.056C90.6243 37.056 88.939 37.4827 87.403 38.336C85.9097 39.1893 84.5657 40.32 83.371 41.728C82.219 43.0933 81.2377 44.6293 80.427 46.336C79.6163 48 78.9977 49.664 78.571 51.328C78.1443 52.992 77.931 54.5067 77.931 55.872C77.931 56.9387 78.059 57.8773 78.315 58.688C78.571 59.4987 78.9337 60.1173 79.403 60.544C79.915 60.9707 80.491 61.184 81.131 61.184C82.7097 61.184 84.5017 60.3307 86.507 58.624C88.5123 56.8747 90.6457 54.3147 92.907 50.944C95.211 47.5733 97.5577 43.4773 99.947 38.656L102.315 41.024C99.5417 46.7413 96.7897 51.4773 94.059 55.232C91.371 58.944 88.7897 61.7173 86.315 63.552C83.8403 65.3867 81.4937 66.304 79.275 66.304ZM98.987 66.304C97.067 66.304 95.6377 65.9413 94.699 65.216C93.803 64.5333 93.227 63.6587 92.971 62.592C92.7577 61.4827 92.7577 60.3307 92.971 59.136C93.1843 57.8987 93.483 56.768 93.867 55.744L101.035 34.304C101.334 33.4507 101.675 32.896 102.059 32.64C102.486 32.384 103.104 32.256 103.915 32.256C105.238 32.256 106.07 32.4693 106.411 32.896C106.795 33.28 106.838 33.8987 106.539 34.752L99.499 55.68C98.7737 57.8987 98.4323 59.4347 98.475 60.288C98.5603 61.0987 99.0937 61.504 100.075 61.504C100.672 61.504 101.12 61.76 101.419 62.272C101.718 62.7413 101.824 63.296 101.739 63.936C101.696 64.5333 101.44 65.0667 100.971 65.536C100.544 66.048 99.883 66.304 98.987 66.304ZM99.1195 66.304C98.4368 66.304 98.0102 66.048 97.8395 65.536C97.6262 65.0667 97.6262 64.5333 97.8395 63.936C98.0102 63.296 98.3088 62.7413 98.7355 62.272C99.1622 61.76 99.6315 61.504 100.144 61.504C100.912 61.504 101.744 61.2053 102.64 60.608C103.493 60.0107 104.389 59.136 105.328 57.984C106.224 56.832 107.184 55.4453 108.208 53.824C109.189 52.16 110.213 50.2827 111.28 48.192C113.2 44.5227 114.906 41.6 116.4 39.424C117.936 37.248 119.344 35.6267 120.624 34.56C121.904 33.4933 123.12 32.8107 124.272 32.512C125.466 32.1707 126.661 32 127.856 32C128.282 32 128.56 32.256 128.688 32.768C128.816 33.2373 128.794 33.792 128.624 34.432C128.453 35.0293 128.154 35.584 127.728 36.096C127.344 36.5653 126.832 36.8 126.192 36.8C125.722 36.8 125.168 36.928 124.528 37.184C123.93 37.3973 123.226 37.9093 122.416 38.72C121.648 39.488 120.73 40.6613 119.664 42.24C118.64 43.8187 117.445 45.9307 116.08 48.576C114.074 52.5867 112.24 55.7867 110.576 58.176C108.912 60.5227 107.397 62.2933 106.032 63.488C104.666 64.64 103.429 65.3867 102.32 65.728C101.168 66.112 100.101 66.304 99.1195 66.304ZM123.376 66.432C121.2 66.432 119.493 66.0053 118.256 65.152C117.061 64.2987 116.229 63.1893 115.76 61.824C115.29 60.416 115.12 58.9013 115.248 57.28C115.418 55.616 115.76 53.9733 116.272 52.352L120.816 38.336C120.944 37.9093 120.922 37.5467 120.752 37.248C120.624 36.9493 120.304 36.8 119.792 36.8C119.28 36.8 118.917 36.5653 118.704 36.096C118.533 35.584 118.512 35.0293 118.64 34.432C118.768 33.792 119.066 33.2373 119.536 32.768C120.005 32.256 120.624 32 121.392 32C122.97 32 124.122 32.2987 124.848 32.896C125.616 33.4507 126.085 34.1973 126.256 35.136C126.426 36.032 126.426 36.992 126.256 38.016C126.085 39.04 125.872 39.9787 125.616 40.832L121.84 52.352C121.498 53.4187 121.221 54.4853 121.008 55.552C120.794 56.576 120.73 57.536 120.816 58.432C120.901 59.2853 121.242 59.9893 121.84 60.544C122.437 61.056 123.376 61.312 124.656 61.312C125.765 61.312 126.874 61.0347 127.984 60.48C129.136 59.8827 130.245 59.072 131.312 58.048C132.421 56.9813 133.466 55.7867 134.448 54.464C135.429 53.1413 136.282 51.712 137.008 50.176C137.776 48.64 138.394 47.0827 138.864 45.504C139.162 44.5227 139.418 43.5627 139.632 42.624C139.888 41.6427 140.016 40.6827 140.016 39.744C139.205 39.104 138.586 38.464 138.16 37.824C137.733 37.184 137.52 36.416 137.52 35.52C137.52 34.496 137.84 33.664 138.48 33.024C139.162 32.3413 140.016 32 141.04 32C141.765 32 142.384 32.1707 142.896 32.512C143.408 32.8533 143.834 33.3227 144.176 33.92C144.517 34.5173 144.752 35.2213 144.88 36.032C145.05 36.8427 145.136 37.7173 145.136 38.656C145.136 41.0027 144.773 43.456 144.048 46.016C143.322 48.5333 142.277 51.008 140.912 53.44C139.589 55.872 138.01 58.0693 136.176 60.032C134.384 61.9947 132.4 63.552 130.224 64.704C128.048 65.856 125.765 66.432 123.376 66.432ZM149.137 40.192C147.217 40.192 145.681 39.9787 144.529 39.552C143.377 39.0827 142.182 38.3787 140.945 37.44C140.433 37.0987 140.177 36.6933 140.177 36.224C140.177 35.7547 140.326 35.328 140.625 34.944C140.881 34.5173 141.201 34.2187 141.585 34.048C141.969 33.8347 142.31 33.856 142.609 34.112C143.334 34.6667 144.209 35.0933 145.233 35.392C146.257 35.6907 147.707 35.84 149.585 35.84C151.206 35.84 152.849 35.712 154.513 35.456C156.219 35.1573 157.734 34.7947 159.057 34.368C160.422 33.8987 161.382 33.408 161.937 32.896C162.363 32.4693 162.79 32.448 163.217 32.832C163.643 33.1733 163.899 33.664 163.985 34.304C164.07 34.944 163.814 35.52 163.217 36.032C161.51 37.3547 159.355 38.3787 156.753 39.104C154.193 39.8293 151.654 40.192 149.137 40.192ZM158.737 66.304C156.859 66.304 155.451 65.9627 154.513 65.28C153.617 64.5973 153.062 63.7227 152.849 62.656C152.635 61.5467 152.635 60.3947 152.849 59.2C153.062 57.9627 153.339 56.8107 153.681 55.744L160.721 34.304C161.019 33.4507 161.361 32.896 161.745 32.64C162.171 32.384 162.79 32.256 163.601 32.256C164.923 32.256 165.755 32.4693 166.097 32.896C166.481 33.28 166.523 33.8987 166.225 34.752L159.377 55.68C158.609 57.9413 158.246 59.4773 158.289 60.288C158.374 61.0987 158.907 61.504 159.889 61.504C160.486 61.504 160.934 61.76 161.233 62.272C161.531 62.7413 161.638 63.296 161.553 63.936C161.51 64.5333 161.254 65.0667 160.785 65.536C160.315 66.048 159.633 66.304 158.737 66.304ZM167.569 22.4C166.715 22.4 165.99 22.1227 165.393 21.568C164.795 21.0133 164.497 20.2027 164.497 19.136C164.497 17.984 164.859 16.896 165.585 15.872C166.353 14.848 167.526 14.336 169.105 14.336C170.001 14.336 170.747 14.6133 171.345 15.168C171.942 15.68 172.241 16.4907 172.241 17.6C172.241 18.752 171.857 19.84 171.089 20.864C170.363 21.888 169.19 22.4 167.569 22.4ZM158.429 66.304C157.832 66.304 157.384 66.048 157.085 65.536C156.786 65.0667 156.68 64.5333 156.765 63.936C156.808 63.296 157.064 62.7413 157.533 62.272C158.002 61.76 158.685 61.504 159.581 61.504C160.69 61.504 161.864 61.0987 163.101 60.288C164.338 59.4773 165.618 58.3467 166.941 56.896C168.221 55.4453 169.544 53.7387 170.909 51.776C172.274 49.8133 173.661 47.68 175.069 45.376C175.41 44.8213 175.88 44.5867 176.477 44.672C177.074 44.7573 177.565 45.0347 177.949 45.504C178.333 45.9307 178.354 46.4213 178.013 46.976C176.178 50.176 174.429 52.992 172.765 55.424C171.144 57.856 169.565 59.8827 168.029 61.504C166.45 63.0827 164.893 64.2773 163.357 65.088C161.778 65.8987 160.136 66.304 158.429 66.304ZM178.589 66.304C177.138 66.304 175.858 65.92 174.749 65.152C173.682 64.384 172.85 63.296 172.253 61.888C171.656 60.48 171.357 58.816 171.357 56.896C171.357 54.9333 171.656 52.8213 172.253 50.56C172.85 48.2987 173.746 46.08 174.941 43.904C176.136 41.728 177.586 39.744 179.293 37.952C181.042 36.16 183.026 34.7307 185.245 33.664C187.464 32.5547 189.938 32 192.669 32C193.906 32 195.229 32.1707 196.637 32.512C198.088 32.8533 199.474 33.344 200.797 33.984L211.293 2.304C211.549 1.45067 211.869 0.896001 212.253 0.639999C212.68 0.383998 213.32 0.255997 214.173 0.255997C215.496 0.255997 216.328 0.469332 216.669 0.896004C217.053 1.28 217.096 1.89867 216.797 2.752L198.301 58.624C198.045 59.52 197.96 60.2027 198.045 60.672C198.13 61.0987 198.429 61.312 198.941 61.312C199.368 61.312 199.773 61.184 200.157 60.928C200.541 60.672 200.968 60.288 201.437 59.776C201.949 59.264 202.546 58.6027 203.229 57.792C203.57 57.3653 203.912 57.1307 204.253 57.088C204.594 57.0027 205 57.1307 205.469 57.472C206.152 57.8987 206.557 58.3253 206.685 58.752C206.856 59.1787 206.813 59.6053 206.557 60.032C205.661 61.44 204.722 62.6133 203.741 63.552C202.802 64.448 201.8 65.1093 200.733 65.536C199.709 65.9627 198.621 66.176 197.469 66.176C195.933 66.176 194.76 65.792 193.949 65.024C193.138 64.256 192.712 63.104 192.669 61.568C192.626 60.032 192.946 58.1333 193.629 55.872C193.672 55.744 193.693 55.616 193.693 55.488C193.736 55.3173 193.778 55.168 193.821 55.04C191.986 57.5573 190.173 59.6693 188.381 61.376C186.632 63.04 184.925 64.2773 183.261 65.088C181.597 65.8987 180.04 66.304 178.589 66.304ZM177.181 55.872C177.181 56.9387 177.309 57.8773 177.565 58.688C177.821 59.4987 178.184 60.1173 178.653 60.544C179.165 60.9707 179.741 61.184 180.381 61.184C181.874 61.184 183.602 60.416 185.565 58.88C187.528 57.3013 189.597 55.0187 191.773 52.032C193.992 49.0027 196.232 45.312 198.493 40.96L199.261 38.464C197.81 37.8667 196.445 37.4827 195.165 37.312C193.928 37.1413 192.797 37.056 191.773 37.056C189.938 37.056 188.253 37.4827 186.717 38.336C185.181 39.1893 183.816 40.32 182.621 41.728C181.469 43.0933 180.488 44.6293 179.677 46.336C178.866 48 178.248 49.664 177.821 51.328C177.394 52.992 177.181 54.5067 177.181 55.872ZM259.193 66.304C255.993 66.304 253.134 65.8133 250.617 64.832C248.099 63.808 245.945 62.336 244.153 60.416C242.403 58.496 241.059 56.1707 240.121 53.44C239.225 50.6667 238.777 47.5307 238.777 44.032C238.777 40.9173 239.139 37.696 239.865 34.368C240.59 30.9973 241.657 27.6907 243.065 24.448C244.473 21.1627 246.222 18.0693 248.313 15.168C250.403 12.224 252.793 9.64267 255.481 7.424C258.211 5.20533 261.241 3.456 264.569 2.176C267.939 0.895997 271.587 0.255997 275.513 0.255997C278.243 0.255997 280.654 0.554665 282.745 1.152C284.878 1.70667 286.755 2.56 288.377 3.712C289.998 4.82133 291.385 6.208 292.537 7.872C292.878 8.384 292.942 8.832 292.729 9.216C292.558 9.6 292.153 10.0267 291.513 10.496C290.915 10.9227 290.403 11.1573 289.977 11.2C289.593 11.2 289.081 10.9227 288.441 10.368C286.99 8.87467 285.155 7.72267 282.937 6.912C280.761 6.10133 277.966 5.696 274.553 5.696C271.694 5.696 268.963 6.22933 266.361 7.296C263.801 8.36267 261.411 9.83467 259.193 11.712C256.974 13.5467 254.969 15.7013 253.177 18.176C251.427 20.6507 249.913 23.296 248.633 26.112C247.395 28.928 246.435 31.8507 245.753 34.88C245.113 37.8667 244.793 40.7893 244.793 43.648C244.793 46.592 245.134 49.1733 245.817 51.392C246.499 53.568 247.481 55.4027 248.761 56.896C250.041 58.3893 251.598 59.52 253.433 60.288C255.31 61.0133 257.443 61.376 259.833 61.376C260.473 61.376 260.921 61.632 261.177 62.144C261.433 62.6133 261.518 63.1893 261.433 63.872C261.347 64.512 261.113 65.0667 260.729 65.536C260.345 66.048 259.833 66.304 259.193 66.304ZM259.165 66.304C258.525 66.304 258.077 66.048 257.821 65.536C257.565 65.0667 257.479 64.512 257.565 63.872C257.65 63.1893 257.885 62.6133 258.269 62.144C258.653 61.632 259.165 61.376 259.805 61.376C262.237 61.376 264.733 60.9707 267.293 60.16C269.853 59.3493 272.477 58.112 275.165 56.448C277.853 54.784 280.583 52.7147 283.357 50.24C286.087 47.7653 288.818 44.864 291.549 41.536C291.975 40.9813 292.466 40.832 293.021 41.088C293.618 41.344 294.045 41.7707 294.301 42.368C294.599 42.9227 294.557 43.456 294.173 43.968C291.357 47.68 288.477 50.944 285.533 53.76C282.631 56.576 279.687 58.9227 276.701 60.8C273.714 62.6347 270.749 64.0213 267.805 64.96C264.861 65.856 261.981 66.304 259.165 66.304ZM300.061 66.432C297.415 66.432 295.175 65.8987 293.341 64.832C291.506 63.7653 290.119 62.2933 289.181 60.416C288.285 58.496 287.837 56.3413 287.837 53.952C287.837 51.6907 288.242 49.3013 289.053 46.784C289.863 44.224 291.058 41.8347 292.637 39.616C294.258 37.3547 296.263 35.52 298.653 34.112C301.085 32.704 303.901 32 307.101 32C309.746 32 311.965 32.512 313.757 33.536C315.591 34.5173 316.957 35.9253 317.853 37.76C318.791 39.552 319.261 41.6427 319.261 44.032C319.261 45.7387 319.005 47.616 318.493 49.664C318.023 51.6693 317.277 53.6747 316.253 55.68C315.271 57.6427 314.013 59.4347 312.477 61.056C310.941 62.6773 309.127 63.9787 307.037 64.96C304.989 65.9413 302.663 66.432 300.061 66.432ZM300.701 61.312C302.791 61.312 304.626 60.7573 306.205 59.648C307.783 58.5387 309.106 57.1307 310.173 55.424C311.239 53.6747 312.05 51.8613 312.605 49.984C313.159 48.064 313.437 46.2933 313.437 44.672C313.437 43.008 313.159 41.6213 312.605 40.512C312.05 39.4027 311.261 38.5707 310.237 38.016C309.213 37.4187 307.997 37.12 306.589 37.12C304.455 37.12 302.578 37.6747 300.957 38.784C299.335 39.8507 297.97 41.2373 296.861 42.944C295.794 44.6507 294.983 46.4427 294.429 48.32C293.874 50.1973 293.597 51.9253 293.597 53.504C293.597 55.168 293.874 56.5973 294.429 57.792C295.026 58.944 295.858 59.8187 296.925 60.416C297.991 61.0133 299.25 61.312 300.701 61.312ZM331.201 52.416C329.75 52.416 328.001 51.968 325.953 51.072C323.905 50.1333 321.857 48.6613 319.809 46.656C317.718 44.608 315.862 41.9627 314.241 38.72C314.027 38.2507 314.113 37.76 314.497 37.248C314.838 36.736 315.286 36.3947 315.841 36.224C316.395 36.0107 316.822 36.16 317.121 36.672C318.614 39.2747 320.214 41.408 321.921 43.072C323.585 44.736 325.227 45.9733 326.849 46.784C328.513 47.5947 330.006 48 331.329 48C331.713 48 331.99 48.2347 332.161 48.704C332.374 49.1307 332.459 49.6427 332.417 50.24C332.417 50.7947 332.31 51.3067 332.097 51.776C331.883 52.2027 331.585 52.416 331.201 52.416ZM327.874 48.192C329.154 48.3627 330.669 48.2773 332.418 47.936C334.21 47.5947 335.959 47.04 337.666 46.272C339.373 45.504 340.781 44.544 341.89 43.392C343.042 42.24 343.618 40.96 343.618 39.552C343.618 38.7413 343.383 38.144 342.914 37.76C342.445 37.3333 341.762 37.12 340.866 37.12C340.269 37.12 339.842 36.864 339.586 36.352C339.33 35.84 339.245 35.2427 339.33 34.56C339.415 33.8773 339.693 33.28 340.162 32.768C340.674 32.256 341.378 32 342.274 32C343.17 32 344.045 32.1493 344.898 32.448C345.751 32.7467 346.498 33.1733 347.138 33.728C347.821 34.2827 348.354 34.944 348.738 35.712C349.122 36.48 349.314 37.3333 349.314 38.272C349.314 40.32 348.738 42.24 347.586 44.032C346.434 45.7813 344.855 47.3387 342.85 48.704C340.845 50.0267 338.541 51.0293 335.938 51.712C333.378 52.3947 330.69 52.6507 327.874 52.48V48.192ZM338.217 66.304C336.382 66.304 334.782 65.9413 333.417 65.216C332.052 64.4907 330.921 63.488 330.025 62.208C329.086 60.8853 328.404 59.392 327.977 57.728C327.508 56.064 327.273 54.3147 327.273 52.48C327.273 50.0053 327.614 47.5733 328.297 45.184C328.937 42.752 329.897 40.5547 331.177 38.592C332.457 36.5867 334.057 34.9867 335.977 33.792C337.854 32.5973 340.009 32 342.441 32C342.825 32 343.081 32.256 343.209 32.768C343.294 33.28 343.273 33.8773 343.145 34.56C342.974 35.2427 342.74 35.84 342.441 36.352C342.1 36.864 341.737 37.12 341.353 37.12C340.201 37.12 339.177 37.4613 338.281 38.144C337.385 38.8267 336.596 39.744 335.913 40.896C335.23 42.0053 334.676 43.264 334.249 44.672C333.78 46.0373 333.438 47.424 333.225 48.832C332.969 50.24 332.841 51.5413 332.841 52.736C332.841 53.9733 332.99 55.104 333.289 56.128C333.588 57.152 334.057 58.048 334.697 58.816C335.294 59.584 336.041 60.1813 336.937 60.608C337.833 60.992 338.878 61.184 340.073 61.184C342.249 61.184 344.489 60.736 346.793 59.84C349.054 58.944 351.337 57.7067 353.641 56.128C355.945 54.5493 358.228 52.7147 360.489 50.624C362.75 48.4907 364.926 46.208 367.017 43.776C369.108 41.3013 371.07 38.7413 372.905 36.096C374.782 33.4507 376.489 30.8267 378.025 28.224C379.561 25.6213 380.884 23.104 381.993 20.672C383.102 18.24 383.956 16 384.553 13.952C385.193 11.8613 385.513 10.0693 385.513 8.576C385.513 8.10667 385.769 7.744 386.281 7.488C386.836 7.232 387.476 7.104 388.201 7.104C388.926 7.104 389.545 7.232 390.057 7.488C390.612 7.744 390.889 8.10667 390.889 8.576C390.889 10.0693 390.569 11.904 389.929 14.08C389.289 16.2133 388.372 18.6027 387.177 21.248C385.982 23.8933 384.553 26.6453 382.889 29.504C381.225 32.3627 379.348 35.264 377.257 38.208C375.209 41.1093 372.99 43.9253 370.601 46.656C368.212 49.3867 365.716 51.9467 363.113 54.336C360.51 56.7253 357.822 58.816 355.049 60.608C352.318 62.4 349.545 63.808 346.729 64.832C343.87 65.8133 341.033 66.304 338.217 66.304ZM367.081 66.304C364.692 66.304 362.793 65.5787 361.385 64.128C360.02 62.6347 359.252 60.5653 359.081 57.92C358.91 55.232 359.401 52.096 360.553 48.512L371.817 14.272C373.396 9.28 375.145 5.65333 377.065 3.392C379.028 1.13067 381.374 0 384.105 0C385.47 0 386.644 0.362666 387.625 1.088C388.649 1.81333 389.438 2.816 389.993 4.096C390.59 5.376 390.889 6.89067 390.889 8.64C390.889 9.45067 390.612 10.048 390.057 10.432C389.545 10.816 388.926 11.008 388.201 11.008C387.476 11.008 386.836 10.816 386.281 10.432C385.769 10.048 385.513 9.45067 385.513 8.64C385.513 7.91467 385.449 7.296 385.321 6.784C385.193 6.272 384.98 5.86667 384.681 5.568C384.382 5.26933 383.934 5.12 383.337 5.12C382.654 5.12 381.993 5.41867 381.353 6.016C380.756 6.57067 380.116 7.616 379.433 9.152C378.75 10.6453 377.918 12.7787 376.937 15.552L365.801 49.6C364.948 52.2027 364.478 54.4 364.393 56.192C364.35 57.984 364.67 59.328 365.353 60.224C366.036 61.0773 367.017 61.504 368.297 61.504C368.894 61.504 369.342 61.76 369.641 62.272C369.94 62.7413 370.046 63.296 369.961 63.936C369.876 64.5333 369.598 65.0667 369.129 65.536C368.66 66.048 367.977 66.304 367.081 66.304ZM367.117 66.304C366.306 66.304 365.773 66.048 365.517 65.536C365.218 65.0667 365.154 64.5333 365.325 63.936C365.453 63.296 365.773 62.7413 366.285 62.272C366.797 61.76 367.458 61.504 368.269 61.504C369.037 61.504 369.997 61.0987 371.149 60.288C372.258 59.4347 373.645 58.0907 375.309 56.256C376.973 54.3787 378.978 51.9253 381.325 48.896C383.671 45.8667 386.445 42.1547 389.645 37.76C390.157 37.0773 390.69 36.8 391.245 36.928C391.842 37.056 392.247 37.4187 392.461 38.016C392.717 38.6133 392.589 39.2747 392.077 40C388.578 45.12 385.527 49.3867 382.925 52.8C380.365 56.1707 378.146 58.8587 376.269 60.864C374.349 62.8267 372.663 64.2347 371.213 65.088C369.762 65.8987 368.397 66.304 367.117 66.304ZM410.381 66.304C408.503 66.304 407.095 65.9413 406.157 65.216C405.261 64.5333 404.706 63.6587 404.493 62.592C404.279 61.4827 404.279 60.3307 404.493 59.136C404.706 57.8987 404.983 56.768 405.325 55.744L409.677 43.2C410.061 42.0907 410.295 41.088 410.381 40.192C410.509 39.2533 410.359 38.5067 409.933 37.952C409.549 37.3973 408.759 37.12 407.565 37.12C406.114 37.12 404.493 37.76 402.701 39.04C400.951 40.32 399.138 42.112 397.261 44.416C395.383 46.72 393.527 49.4507 391.693 52.608C389.901 55.7227 388.237 59.1573 386.701 62.912L386.381 57.152C388.002 53.184 389.73 49.664 391.565 46.592C393.399 43.4773 395.319 40.832 397.325 38.656C399.33 36.48 401.357 34.8373 403.405 33.728C405.495 32.576 407.586 32 409.677 32C411.639 32 413.154 32.4907 414.221 33.472C415.33 34.4107 415.927 35.8187 416.013 37.696C416.141 39.5733 415.735 41.8987 414.797 44.672L411.021 55.68C410.253 57.8987 409.89 59.4347 409.933 60.288C410.018 61.0987 410.573 61.504 411.597 61.504C412.194 61.504 412.621 61.76 412.877 62.272C413.175 62.7413 413.282 63.296 413.197 63.936C413.154 64.5333 412.898 65.0667 412.429 65.536C411.959 66.048 411.277 66.304 410.381 66.304ZM383.181 66.176C382.498 66.176 381.858 66.0267 381.261 65.728C380.663 65.4293 380.493 64.8747 380.749 64.064L397.005 14.272C398.583 9.28 400.333 5.65333 402.253 3.392C404.215 1.13067 406.562 0 409.293 0C410.701 0 411.895 0.32 412.877 0.959999C413.901 1.6 414.69 2.496 415.245 3.648C415.842 4.75733 416.141 6.03733 416.141 7.488C416.141 8.64 415.97 9.87733 415.629 11.2C415.287 12.48 414.797 13.8453 414.157 15.296C413.559 16.704 412.791 18.1973 411.853 19.776C410.957 21.312 409.89 22.8907 408.653 24.512C407.458 26.0907 406.135 27.712 404.685 29.376C403.234 30.9973 401.634 32.6613 399.885 34.368C398.178 36.032 396.343 37.7173 394.381 39.424L386.189 64.512C386.018 65.0667 385.719 65.472 385.293 65.728C384.866 66.0267 384.162 66.176 383.181 66.176ZM396.749 32.192C398.114 30.784 399.394 29.3547 400.589 27.904C401.826 26.4533 402.957 25.0027 403.981 23.552C405.047 22.1013 406.007 20.6933 406.861 19.328C407.714 17.92 408.418 16.5547 408.973 15.232C409.57 13.9093 410.018 12.6507 410.317 11.456C410.658 10.2187 410.829 9.06667 410.829 8C410.829 7.40267 410.743 6.89067 410.573 6.464C410.402 6.03733 410.146 5.71733 409.805 5.504C409.463 5.248 409.037 5.12 408.525 5.12C407.842 5.12 407.181 5.41867 406.541 6.016C405.901 6.57067 405.239 7.616 404.557 9.152C403.874 10.688 403.063 12.8853 402.125 15.744L396.749 32.192ZM410.367 66.304C409.769 66.304 409.321 66.048 409.023 65.536C408.724 65.0667 408.617 64.5333 408.703 63.936C408.745 63.296 409.001 62.7413 409.471 62.272C409.94 61.76 410.623 61.504 411.519 61.504C412.628 61.504 413.801 61.0987 415.039 60.288C416.276 59.4773 417.556 58.3467 418.879 56.896C420.159 55.4453 421.481 53.7387 422.847 51.776C424.212 49.8133 425.599 47.68 427.007 45.376C427.348 44.8213 427.817 44.5867 428.415 44.672C429.012 44.7573 429.503 45.0347 429.887 45.504C430.271 45.9307 430.292 46.4213 429.951 46.976C428.116 50.176 426.367 52.992 424.703 55.424C423.081 57.856 421.503 59.8827 419.967 61.504C418.388 63.0827 416.831 64.2773 415.295 65.088C413.716 65.8987 412.073 66.304 410.367 66.304ZM437.311 66.432C434.665 66.432 432.425 65.8987 430.591 64.832C428.756 63.7653 427.369 62.2933 426.431 60.416C425.535 58.496 425.087 56.3413 425.087 53.952C425.087 51.6907 425.492 49.3013 426.303 46.784C427.113 44.224 428.308 41.8347 429.887 39.616C431.508 37.3547 433.513 35.52 435.903 34.112C438.335 32.704 441.151 32 444.351 32C446.996 32 449.215 32.512 451.007 33.536C452.841 34.5173 454.207 35.9253 455.103 37.76C456.041 39.552 456.511 41.6427 456.511 44.032C456.511 45.7387 456.255 47.616 455.743 49.664C455.273 51.6693 454.527 53.6747 453.503 55.68C452.521 57.6427 451.263 59.4347 449.727 61.056C448.191 62.6773 446.377 63.9787 444.287 64.96C442.239 65.9413 439.913 66.432 437.311 66.432ZM437.951 61.312C440.041 61.312 441.876 60.7573 443.455 59.648C445.033 58.5387 446.356 57.1307 447.423 55.424C448.489 53.6747 449.3 51.8613 449.855 49.984C450.409 48.064 450.687 46.2933 450.687 44.672C450.687 43.008 450.409 41.6213 449.855 40.512C449.3 39.4027 448.511 38.5707 447.487 38.016C446.463 37.4187 445.247 37.12 443.839 37.12C441.705 37.12 439.828 37.6747 438.207 38.784C436.585 39.8507 435.22 41.2373 434.111 42.944C433.044 44.6507 432.233 46.4427 431.679 48.32C431.124 50.1973 430.847 51.9253 430.847 53.504C430.847 55.168 431.124 56.5973 431.679 57.792C432.276 58.944 433.108 59.8187 434.175 60.416C435.241 61.0133 436.5 61.312 437.951 61.312Z" fill="#C9D1D9"/>
</svg>
