<svg width="159" height="37" viewBox="0 0 159 37" fill="none" xmlns="http://www.w3.org/2000/svg">
<g filter="url(#filter0_d_249_2)">
<path d="M10.74 28.74C10.2467 28.74 9.79333 28.6267 9.38 28.4C8.96666 28.1867 8.63333 27.8933 8.38 27.52C8.12666 27.1333 8 26.7067 8 26.24C8 25.84 8.08666 25.4733 8.26 25.14C8.44666 24.7933 8.72 24.52 9.08 24.32C9.44 24.1067 9.88666 24 10.42 24C11.0067 24 11.5733 24.0733 12.12 24.22C12.6667 24.3533 13.1933 24.5333 13.7 24.76C14.22 24.9867 14.7333 25.2267 15.24 25.48C15.7467 25.7333 16.2467 25.9733 16.74 26.2C17.2467 26.4267 17.7533 26.6133 18.26 26.76C18.7667 26.8933 19.2867 26.96 19.82 26.96C20.4867 26.96 21.1533 26.8267 21.82 26.56C22.4867 26.28 23.1267 25.9 23.74 25.42C24.3667 24.94 24.94 24.3733 25.46 23.72C25.9933 23.0667 26.46 22.36 26.86 21.6C27.26 20.84 27.5667 20.0467 27.78 19.22C28.0067 18.3933 28.12 17.5667 28.12 16.74C28.12 15.5933 27.94 14.5867 27.58 13.72C27.2333 12.84 26.74 12.1133 26.1 11.54C25.46 10.9533 24.6933 10.5133 23.8 10.22C22.92 9.92667 21.94 9.78 20.86 9.78C20.1267 9.78 19.4333 9.83334 18.78 9.94C18.14 10.0333 17.54 10.18 16.98 10.38C16.4333 10.58 15.9267 10.8333 15.46 11.14C14.9933 11.4333 14.5733 11.78 14.2 12.18C13.8267 12.5667 13.4933 13.0133 13.2 13.52C13.08 13.7333 12.94 13.8533 12.78 13.88C12.62 13.8933 12.4133 13.8467 12.16 13.74C11.9733 13.6333 11.8467 13.5067 11.78 13.36C11.7267 13.2 11.7467 13.0267 11.84 12.84C12.16 12.2133 12.5533 11.6533 13.02 11.16C13.4867 10.6533 14.0067 10.2067 14.58 9.82C15.1667 9.43334 15.8067 9.11334 16.5 8.86C17.1933 8.60667 17.9333 8.41334 18.72 8.28C19.5067 8.14667 20.3267 8.08 21.18 8.08C22.46 8.08 23.6333 8.26667 24.7 8.64C25.78 9.01334 26.7133 9.56667 27.5 10.3C28.2867 11.02 28.8933 11.9133 29.32 12.98C29.7467 14.0333 29.96 15.2533 29.96 16.64C29.96 17.6267 29.8267 18.6133 29.56 19.6C29.3067 20.5733 28.9467 21.5067 28.48 22.4C28.0267 23.2933 27.48 24.12 26.84 24.88C26.2133 25.6267 25.5133 26.28 24.74 26.84C23.98 27.4 23.1733 27.84 22.32 28.16C21.48 28.4667 20.6133 28.62 19.72 28.62C19.0267 28.62 18.34 28.52 17.66 28.32C16.98 28.12 16.32 27.8733 15.68 27.58C15.04 27.2733 14.4267 26.9667 13.84 26.66C13.2533 26.3533 12.6933 26.1 12.16 25.9C11.6267 25.7 11.1267 25.6 10.66 25.6C10.38 25.6 10.1733 25.6667 10.04 25.8C9.90666 25.92 9.84 26.0867 9.84 26.3C9.84 26.5933 9.96 26.8067 10.2 26.94C10.44 27.0733 10.6733 27.14 10.9 27.14C11.3133 27.14 11.64 27.06 11.88 26.9C12.1333 26.7267 12.3533 26.4467 12.54 26.06C12.7267 25.66 12.92 25.1267 13.12 24.46L17.04 12.32C17.1067 12.1333 17.22 11.9933 17.38 11.9C17.54 11.8067 17.7667 11.76 18.06 11.76C18.38 11.76 18.6067 11.8133 18.74 11.92C18.8733 12.0133 18.9067 12.16 18.84 12.36L14.88 24.64C14.56 25.6667 14.2067 26.48 13.82 27.08C13.4467 27.6667 13.0133 28.0933 12.52 28.36C12.04 28.6133 11.4467 28.74 10.74 28.74ZM32.7734 28.72C32.3334 28.72 31.9401 28.6 31.5934 28.36C31.2601 28.12 31.0001 27.78 30.8134 27.34C30.6268 26.9 30.5334 26.38 30.5334 25.78C30.5334 25.1667 30.6268 24.5067 30.8134 23.8C31.0001 23.0933 31.2801 22.4 31.6534 21.72C32.0268 21.04 32.4801 20.42 33.0134 19.86C33.5468 19.3 34.1601 18.8533 34.8534 18.52C35.5601 18.1733 36.3334 18 37.1734 18C37.6801 18 38.2268 18.0933 38.8134 18.28C39.4001 18.4533 39.9268 18.7 40.3934 19.02L40.0334 20.4C39.3801 20.0533 38.8001 19.8333 38.2934 19.74C37.7868 19.6333 37.3201 19.58 36.8934 19.58C36.3201 19.58 35.7934 19.7133 35.3134 19.98C34.8468 20.2467 34.4268 20.6 34.0534 21.04C33.6934 21.4667 33.3868 21.9467 33.1334 22.48C32.8801 23 32.6868 23.52 32.5534 24.04C32.4201 24.56 32.3534 25.0333 32.3534 25.46C32.3534 25.7933 32.3934 26.0867 32.4734 26.34C32.5534 26.5933 32.6668 26.7867 32.8134 26.92C32.9734 27.0533 33.1534 27.12 33.3534 27.12C33.8468 27.12 34.4068 26.8533 35.0334 26.32C35.6601 25.7733 36.3268 24.9733 37.0334 23.92C37.7534 22.8667 38.4868 21.5867 39.2334 20.08L39.9734 20.82C39.1068 22.6067 38.2468 24.0867 37.3934 25.26C36.5534 26.42 35.7468 27.2867 34.9734 27.86C34.2001 28.4333 33.4668 28.72 32.7734 28.72ZM38.9334 28.72C38.3334 28.72 37.8868 28.6067 37.5934 28.38C37.3134 28.1667 37.1334 27.8933 37.0534 27.56C36.9868 27.2133 36.9868 26.8533 37.0534 26.48C37.1201 26.0933 37.2134 25.74 37.3334 25.42L39.5734 18.72C39.6668 18.4533 39.7734 18.28 39.8934 18.2C40.0268 18.12 40.2201 18.08 40.4734 18.08C40.8868 18.08 41.1468 18.1467 41.2534 18.28C41.3734 18.4 41.3868 18.5933 41.2934 18.86L39.0934 25.4C38.8668 26.0933 38.7601 26.5733 38.7734 26.84C38.8001 27.0933 38.9668 27.22 39.2734 27.22C39.4601 27.22 39.6001 27.3 39.6934 27.46C39.7868 27.6067 39.8201 27.78 39.7934 27.98C39.7801 28.1667 39.7001 28.3333 39.5534 28.48C39.4201 28.64 39.2134 28.72 38.9334 28.72ZM38.9748 28.72C38.7615 28.72 38.6282 28.64 38.5748 28.48C38.5082 28.3333 38.5082 28.1667 38.5748 27.98C38.6282 27.78 38.7215 27.6067 38.8548 27.46C38.9882 27.3 39.1348 27.22 39.2948 27.22C39.5348 27.22 39.7948 27.1267 40.0748 26.94C40.3415 26.7533 40.6215 26.48 40.9148 26.12C41.1948 25.76 41.4948 25.3267 41.8148 24.82C42.1215 24.3 42.4415 23.7133 42.7748 23.06C43.3748 21.9133 43.9082 21 44.3748 20.32C44.8548 19.64 45.2948 19.1333 45.6948 18.8C46.0948 18.4667 46.4748 18.2533 46.8348 18.16C47.2082 18.0533 47.5815 18 47.9548 18C48.0882 18 48.1748 18.08 48.2148 18.24C48.2548 18.3867 48.2482 18.56 48.1948 18.76C48.1415 18.9467 48.0482 19.12 47.9148 19.28C47.7948 19.4267 47.6348 19.5 47.4348 19.5C47.2882 19.5 47.1148 19.54 46.9148 19.62C46.7282 19.6867 46.5082 19.8467 46.2548 20.1C46.0148 20.34 45.7282 20.7067 45.3948 21.2C45.0748 21.6933 44.7015 22.3533 44.2748 23.18C43.6482 24.4333 43.0748 25.4333 42.5548 26.18C42.0348 26.9133 41.5615 27.4667 41.1348 27.84C40.7082 28.2 40.3215 28.4333 39.9748 28.54C39.6148 28.66 39.2815 28.72 38.9748 28.72ZM46.5548 28.76C45.8748 28.76 45.3415 28.6267 44.9548 28.36C44.5815 28.0933 44.3215 27.7467 44.1748 27.32C44.0282 26.88 43.9748 26.4067 44.0148 25.9C44.0682 25.38 44.1748 24.8667 44.3348 24.36L45.7548 19.98C45.7948 19.8467 45.7882 19.7333 45.7348 19.64C45.6948 19.5467 45.5948 19.5 45.4348 19.5C45.2748 19.5 45.1615 19.4267 45.0948 19.28C45.0415 19.12 45.0348 18.9467 45.0748 18.76C45.1148 18.56 45.2082 18.3867 45.3548 18.24C45.5015 18.08 45.6948 18 45.9348 18C46.4282 18 46.7882 18.0933 47.0148 18.28C47.2548 18.4533 47.4015 18.6867 47.4548 18.98C47.5082 19.26 47.5082 19.56 47.4548 19.88C47.4015 20.2 47.3348 20.4933 47.2548 20.76L46.0748 24.36C45.9682 24.6933 45.8815 25.0267 45.8148 25.36C45.7482 25.68 45.7282 25.98 45.7548 26.26C45.7815 26.5267 45.8882 26.7467 46.0748 26.92C46.2615 27.08 46.5548 27.16 46.9548 27.16C47.3015 27.16 47.6482 27.0733 47.9948 26.9C48.3548 26.7133 48.7015 26.46 49.0348 26.14C49.3815 25.8067 49.7082 25.4333 50.0148 25.02C50.3215 24.6067 50.5882 24.16 50.8148 23.68C51.0548 23.2 51.2482 22.7133 51.3948 22.22C51.4882 21.9133 51.5682 21.6133 51.6348 21.32C51.7148 21.0133 51.7548 20.7133 51.7548 20.42C51.5015 20.22 51.3082 20.02 51.1748 19.82C51.0415 19.62 50.9748 19.38 50.9748 19.1C50.9748 18.78 51.0748 18.52 51.2748 18.32C51.4882 18.1067 51.7548 18 52.0748 18C52.3015 18 52.4948 18.0533 52.6548 18.16C52.8148 18.2667 52.9482 18.4133 53.0548 18.6C53.1615 18.7867 53.2348 19.0067 53.2748 19.26C53.3282 19.5133 53.3548 19.7867 53.3548 20.08C53.3548 20.8133 53.2415 21.58 53.0148 22.38C52.7882 23.1667 52.4615 23.94 52.0348 24.7C51.6215 25.46 51.1282 26.1467 50.5548 26.76C49.9948 27.3733 49.3748 27.86 48.6948 28.22C48.0148 28.58 47.3015 28.76 46.5548 28.76ZM54.6052 20.56C54.0052 20.56 53.5252 20.4933 53.1652 20.36C52.8052 20.2133 52.4318 19.9933 52.0452 19.7C51.8852 19.5933 51.8052 19.4667 51.8052 19.32C51.8052 19.1733 51.8518 19.04 51.9452 18.92C52.0252 18.7867 52.1252 18.6933 52.2452 18.64C52.3652 18.5733 52.4718 18.58 52.5652 18.66C52.7918 18.8333 53.0652 18.9667 53.3852 19.06C53.7052 19.1533 54.1585 19.2 54.7452 19.2C55.2518 19.2 55.7652 19.16 56.2852 19.08C56.8185 18.9867 57.2918 18.8733 57.7052 18.74C58.1318 18.5933 58.4318 18.44 58.6052 18.28C58.7385 18.1467 58.8718 18.14 59.0052 18.26C59.1385 18.3667 59.2185 18.52 59.2452 18.72C59.2718 18.92 59.1918 19.1 59.0052 19.26C58.4718 19.6733 57.7985 19.9933 56.9852 20.22C56.1852 20.4467 55.3918 20.56 54.6052 20.56ZM57.6052 28.72C57.0185 28.72 56.5785 28.6133 56.2852 28.4C56.0052 28.1867 55.8318 27.9133 55.7652 27.58C55.6985 27.2333 55.6985 26.8733 55.7652 26.5C55.8318 26.1133 55.9185 25.7533 56.0252 25.42L58.2252 18.72C58.3185 18.4533 58.4252 18.28 58.5452 18.2C58.6785 18.12 58.8718 18.08 59.1252 18.08C59.5385 18.08 59.7985 18.1467 59.9052 18.28C60.0252 18.4 60.0385 18.5933 59.9452 18.86L57.8052 25.4C57.5652 26.1067 57.4518 26.5867 57.4652 26.84C57.4918 27.0933 57.6585 27.22 57.9652 27.22C58.1518 27.22 58.2918 27.3 58.3852 27.46C58.4785 27.6067 58.5118 27.78 58.4852 27.98C58.4718 28.1667 58.3918 28.3333 58.2452 28.48C58.0985 28.64 57.8852 28.72 57.6052 28.72ZM60.3652 15C60.0985 15 59.8718 14.9133 59.6852 14.74C59.4985 14.5667 59.4052 14.3133 59.4052 13.98C59.4052 13.62 59.5185 13.28 59.7452 12.96C59.9852 12.64 60.3518 12.48 60.8452 12.48C61.1252 12.48 61.3585 12.5667 61.5452 12.74C61.7318 12.9 61.8252 13.1533 61.8252 13.5C61.8252 13.86 61.7052 14.2 61.4652 14.52C61.2385 14.84 60.8718 15 60.3652 15ZM57.5091 28.72C57.3224 28.72 57.1824 28.64 57.0891 28.48C56.9957 28.3333 56.9624 28.1667 56.9891 27.98C57.0024 27.78 57.0824 27.6067 57.2291 27.46C57.3757 27.3 57.5891 27.22 57.8691 27.22C58.2157 27.22 58.5824 27.0933 58.9691 26.84C59.3557 26.5867 59.7557 26.2333 60.1691 25.78C60.5691 25.3267 60.9824 24.7933 61.4091 24.18C61.8357 23.5667 62.2691 22.9 62.7091 22.18C62.8157 22.0067 62.9624 21.9333 63.1491 21.96C63.3357 21.9867 63.4891 22.0733 63.6091 22.22C63.7291 22.3533 63.7357 22.5067 63.6291 22.68C63.0557 23.68 62.5091 24.56 61.9891 25.32C61.4824 26.08 60.9891 26.7133 60.5091 27.22C60.0157 27.7133 59.5291 28.0867 59.0491 28.34C58.5557 28.5933 58.0424 28.72 57.5091 28.72ZM63.8091 28.72C63.3557 28.72 62.9557 28.6 62.6091 28.36C62.2757 28.12 62.0157 27.78 61.8291 27.34C61.6424 26.9 61.5491 26.38 61.5491 25.78C61.5491 25.1667 61.6424 24.5067 61.8291 23.8C62.0157 23.0933 62.2957 22.4 62.6691 21.72C63.0424 21.04 63.4957 20.42 64.0291 19.86C64.5757 19.3 65.1957 18.8533 65.8891 18.52C66.5824 18.1733 67.3557 18 68.2091 18C68.5957 18 69.0091 18.0533 69.4491 18.16C69.9024 18.2667 70.3357 18.42 70.7491 18.62L74.0291 8.72C74.1091 8.45334 74.2091 8.28 74.3291 8.2C74.4624 8.12 74.6624 8.08 74.9291 8.08C75.3424 8.08 75.6024 8.14667 75.7091 8.28C75.8291 8.4 75.8424 8.59334 75.7491 8.86L69.9691 26.32C69.8891 26.6 69.8624 26.8133 69.8891 26.96C69.9157 27.0933 70.0091 27.16 70.1691 27.16C70.3024 27.16 70.4291 27.12 70.5491 27.04C70.6691 26.96 70.8024 26.84 70.9491 26.68C71.1091 26.52 71.2957 26.3133 71.5091 26.06C71.6157 25.9267 71.7224 25.8533 71.8291 25.84C71.9357 25.8133 72.0624 25.8533 72.2091 25.96C72.4224 26.0933 72.5491 26.2267 72.5891 26.36C72.6424 26.4933 72.6291 26.6267 72.5491 26.76C72.2691 27.2 71.9757 27.5667 71.6691 27.86C71.3757 28.14 71.0624 28.3467 70.7291 28.48C70.4091 28.6133 70.0691 28.68 69.7091 28.68C69.2291 28.68 68.8624 28.56 68.6091 28.32C68.3557 28.08 68.2224 27.72 68.2091 27.24C68.1957 26.76 68.2957 26.1667 68.5091 25.46C68.5224 25.42 68.5291 25.38 68.5291 25.34C68.5424 25.2867 68.5557 25.24 68.5691 25.2C67.9957 25.9867 67.4291 26.6467 66.8691 27.18C66.3224 27.7 65.7891 28.0867 65.2691 28.34C64.7491 28.5933 64.2624 28.72 63.8091 28.72ZM63.3691 25.46C63.3691 25.7933 63.4091 26.0867 63.4891 26.34C63.5691 26.5933 63.6824 26.7867 63.8291 26.92C63.9891 27.0533 64.1691 27.12 64.3691 27.12C64.8357 27.12 65.3757 26.88 65.9891 26.4C66.6024 25.9067 67.2491 25.1933 67.9291 24.26C68.6224 23.3133 69.3224 22.16 70.0291 20.8L70.2691 20.02C69.8157 19.8333 69.3891 19.7133 68.9891 19.66C68.6024 19.6067 68.2491 19.58 67.9291 19.58C67.3557 19.58 66.8291 19.7133 66.3491 19.98C65.8691 20.2467 65.4424 20.6 65.0691 21.04C64.7091 21.4667 64.4024 21.9467 64.1491 22.48C63.8957 23 63.7024 23.52 63.5691 24.04C63.4357 24.56 63.3691 25.0333 63.3691 25.46ZM88.9977 28.72C87.9977 28.72 87.1043 28.5667 86.3177 28.26C85.531 27.94 84.8577 27.48 84.2977 26.88C83.751 26.28 83.331 25.5533 83.0377 24.7C82.7577 23.8333 82.6177 22.8533 82.6177 21.76C82.6177 20.7867 82.731 19.78 82.9577 18.74C83.1843 17.6867 83.5177 16.6533 83.9577 15.64C84.3977 14.6133 84.9443 13.6467 85.5977 12.74C86.251 11.82 86.9977 11.0133 87.8377 10.32C88.691 9.62667 89.6377 9.08 90.6777 8.68C91.731 8.28 92.871 8.08 94.0977 8.08C94.951 8.08 95.7043 8.17334 96.3577 8.36C97.0243 8.53334 97.611 8.8 98.1177 9.16C98.6243 9.50667 99.0577 9.94 99.4177 10.46C99.5243 10.62 99.5443 10.76 99.4777 10.88C99.4243 11 99.2977 11.1333 99.0977 11.28C98.911 11.4133 98.751 11.4867 98.6177 11.5C98.4977 11.5 98.3377 11.4133 98.1377 11.24C97.6843 10.7733 97.111 10.4133 96.4177 10.16C95.7377 9.90667 94.8643 9.78 93.7977 9.78C92.9043 9.78 92.051 9.94667 91.2377 10.28C90.4377 10.6133 89.691 11.0733 88.9977 11.66C88.3043 12.2333 87.6777 12.9067 87.1177 13.68C86.571 14.4533 86.0977 15.28 85.6977 16.16C85.311 17.04 85.011 17.9533 84.7977 18.9C84.5977 19.8333 84.4977 20.7467 84.4977 21.64C84.4977 22.56 84.6043 23.3667 84.8177 24.06C85.031 24.74 85.3377 25.3133 85.7377 25.78C86.1377 26.2467 86.6243 26.6 87.1977 26.84C87.7843 27.0667 88.451 27.18 89.1977 27.18C89.3977 27.18 89.5377 27.26 89.6177 27.42C89.6977 27.5667 89.7243 27.7467 89.6977 27.96C89.671 28.16 89.5977 28.3333 89.4777 28.48C89.3577 28.64 89.1977 28.72 88.9977 28.72ZM88.9889 28.72C88.7889 28.72 88.6489 28.64 88.5689 28.48C88.4889 28.3333 88.4622 28.16 88.4889 27.96C88.5156 27.7467 88.5889 27.5667 88.7089 27.42C88.8289 27.26 88.9889 27.18 89.1889 27.18C89.9489 27.18 90.7289 27.0533 91.5289 26.8C92.3289 26.5467 93.1489 26.16 93.9889 25.64C94.8289 25.12 95.6822 24.4733 96.5489 23.7C97.4022 22.9267 98.2556 22.02 99.1089 20.98C99.2422 20.8067 99.3956 20.76 99.5689 20.84C99.7556 20.92 99.8889 21.0533 99.9689 21.24C100.062 21.4133 100.049 21.58 99.9289 21.74C99.0489 22.9 98.1489 23.92 97.2289 24.8C96.3222 25.68 95.4022 26.4133 94.4689 27C93.5356 27.5733 92.6089 28.0067 91.6889 28.3C90.7689 28.58 89.8689 28.72 88.9889 28.72ZM101.769 28.76C100.942 28.76 100.242 28.5933 99.6689 28.26C99.0956 27.9267 98.6622 27.4667 98.3689 26.88C98.0889 26.28 97.9489 25.6067 97.9489 24.86C97.9489 24.1533 98.0756 23.4067 98.3289 22.62C98.5822 21.82 98.9556 21.0733 99.4489 20.38C99.9556 19.6733 100.582 19.1 101.329 18.66C102.089 18.22 102.969 18 103.969 18C104.796 18 105.489 18.16 106.049 18.48C106.622 18.7867 107.049 19.2267 107.329 19.8C107.622 20.36 107.769 21.0133 107.769 21.76C107.769 22.2933 107.689 22.88 107.529 23.52C107.382 24.1467 107.149 24.7733 106.829 25.4C106.522 26.0133 106.129 26.5733 105.649 27.08C105.169 27.5867 104.602 27.9933 103.949 28.3C103.309 28.6067 102.582 28.76 101.769 28.76ZM101.969 27.16C102.622 27.16 103.196 26.9867 103.689 26.64C104.182 26.2933 104.596 25.8533 104.929 25.32C105.262 24.7733 105.516 24.2067 105.689 23.62C105.862 23.02 105.949 22.4667 105.949 21.96C105.949 21.44 105.862 21.0067 105.689 20.66C105.516 20.3133 105.269 20.0533 104.949 19.88C104.629 19.6933 104.249 19.6 103.809 19.6C103.142 19.6 102.556 19.7733 102.049 20.12C101.542 20.4533 101.116 20.8867 100.769 21.42C100.436 21.9533 100.182 22.5133 100.009 23.1C99.8356 23.6867 99.7489 24.2267 99.7489 24.72C99.7489 25.24 99.8356 25.6867 100.009 26.06C100.196 26.42 100.456 26.6933 100.789 26.88C101.122 27.0667 101.516 27.16 101.969 27.16ZM111.5 24.38C111.047 24.38 110.5 24.24 109.86 23.96C109.22 23.6667 108.58 23.2067 107.94 22.58C107.287 21.94 106.707 21.1133 106.2 20.1C106.133 19.9533 106.16 19.8 106.28 19.64C106.387 19.48 106.527 19.3733 106.7 19.32C106.873 19.2533 107.007 19.3 107.1 19.46C107.567 20.2733 108.067 20.94 108.6 21.46C109.12 21.98 109.633 22.3667 110.14 22.62C110.66 22.8733 111.127 23 111.54 23C111.66 23 111.747 23.0733 111.8 23.22C111.867 23.3533 111.893 23.5133 111.88 23.7C111.88 23.8733 111.847 24.0333 111.78 24.18C111.713 24.3133 111.62 24.38 111.5 24.38ZM110.461 23.06C110.861 23.1133 111.334 23.0867 111.881 22.98C112.441 22.8733 112.987 22.7 113.521 22.46C114.054 22.22 114.494 21.92 114.841 21.56C115.201 21.2 115.381 20.8 115.381 20.36C115.381 20.1067 115.307 19.92 115.161 19.8C115.014 19.6667 114.801 19.6 114.521 19.6C114.334 19.6 114.201 19.52 114.121 19.36C114.041 19.2 114.014 19.0133 114.041 18.8C114.067 18.5867 114.154 18.4 114.301 18.24C114.461 18.08 114.681 18 114.961 18C115.241 18 115.514 18.0467 115.781 18.14C116.047 18.2333 116.281 18.3667 116.481 18.54C116.694 18.7133 116.861 18.92 116.981 19.16C117.101 19.4 117.161 19.6667 117.161 19.96C117.161 20.6 116.981 21.2 116.621 21.76C116.261 22.3067 115.767 22.7933 115.141 23.22C114.514 23.6333 113.794 23.9467 112.981 24.16C112.181 24.3733 111.341 24.4533 110.461 24.4V23.06ZM113.693 28.72C113.119 28.72 112.619 28.6067 112.193 28.38C111.766 28.1533 111.413 27.84 111.133 27.44C110.839 27.0267 110.626 26.56 110.493 26.04C110.346 25.52 110.273 24.9733 110.273 24.4C110.273 23.6267 110.379 22.8667 110.593 22.12C110.793 21.36 111.093 20.6733 111.493 20.06C111.893 19.4333 112.393 18.9333 112.993 18.56C113.579 18.1867 114.253 18 115.013 18C115.133 18 115.213 18.08 115.253 18.24C115.279 18.4 115.273 18.5867 115.233 18.8C115.179 19.0133 115.106 19.2 115.013 19.36C114.906 19.52 114.793 19.6 114.673 19.6C114.313 19.6 113.993 19.7067 113.713 19.92C113.433 20.1333 113.186 20.42 112.973 20.78C112.759 21.1267 112.586 21.52 112.453 21.96C112.306 22.3867 112.199 22.82 112.133 23.26C112.053 23.7 112.013 24.1067 112.013 24.48C112.013 24.8667 112.059 25.22 112.153 25.54C112.246 25.86 112.393 26.14 112.593 26.38C112.779 26.62 113.013 26.8067 113.293 26.94C113.573 27.06 113.899 27.12 114.273 27.12C114.953 27.12 115.653 26.98 116.373 26.7C117.079 26.42 117.793 26.0333 118.513 25.54C119.233 25.0467 119.946 24.4733 120.653 23.82C121.359 23.1533 122.039 22.44 122.693 21.68C123.346 20.9067 123.959 20.1067 124.533 19.28C125.119 18.4533 125.653 17.6333 126.133 16.82C126.613 16.0067 127.026 15.22 127.373 14.46C127.719 13.7 127.986 13 128.173 12.36C128.373 11.7067 128.473 11.1467 128.473 10.68C128.473 10.5333 128.553 10.42 128.713 10.34C128.886 10.26 129.086 10.22 129.313 10.22C129.539 10.22 129.733 10.26 129.893 10.34C130.066 10.42 130.153 10.5333 130.153 10.68C130.153 11.1467 130.053 11.72 129.853 12.4C129.653 13.0667 129.366 13.8133 128.993 14.64C128.619 15.4667 128.173 16.3267 127.653 17.22C127.133 18.1133 126.546 19.02 125.893 19.94C125.253 20.8467 124.559 21.7267 123.813 22.58C123.066 23.4333 122.286 24.2333 121.473 24.98C120.659 25.7267 119.819 26.38 118.953 26.94C118.099 27.5 117.233 27.94 116.353 28.26C115.459 28.5667 114.573 28.72 113.693 28.72ZM122.713 28.72C121.966 28.72 121.373 28.4933 120.933 28.04C120.506 27.5733 120.266 26.9267 120.213 26.1C120.159 25.26 120.313 24.28 120.673 23.16L124.193 12.46C124.686 10.9 125.233 9.76667 125.833 9.06C126.446 8.35334 127.179 8 128.033 8C128.459 8 128.826 8.11334 129.133 8.34C129.453 8.56667 129.699 8.88 129.873 9.28C130.059 9.68 130.153 10.1533 130.153 10.7C130.153 10.9533 130.066 11.14 129.893 11.26C129.733 11.38 129.539 11.44 129.313 11.44C129.086 11.44 128.886 11.38 128.713 11.26C128.553 11.14 128.473 10.9533 128.473 10.7C128.473 10.4733 128.453 10.28 128.413 10.12C128.373 9.96 128.306 9.83334 128.213 9.74C128.119 9.64667 127.979 9.6 127.793 9.6C127.579 9.6 127.373 9.69334 127.173 9.88C126.986 10.0533 126.786 10.38 126.573 10.86C126.359 11.3267 126.099 11.9933 125.793 12.86L122.313 23.5C122.046 24.3133 121.899 25 121.873 25.56C121.859 26.12 121.959 26.54 122.173 26.82C122.386 27.0867 122.693 27.22 123.093 27.22C123.279 27.22 123.419 27.3 123.513 27.46C123.606 27.6067 123.639 27.78 123.613 27.98C123.586 28.1667 123.499 28.3333 123.353 28.48C123.206 28.64 122.993 28.72 122.713 28.72ZM122.724 28.72C122.471 28.72 122.304 28.64 122.224 28.48C122.131 28.3333 122.111 28.1667 122.164 27.98C122.204 27.78 122.304 27.6067 122.464 27.46C122.624 27.3 122.831 27.22 123.084 27.22C123.324 27.22 123.624 27.0933 123.984 26.84C124.331 26.5733 124.764 26.1533 125.284 25.58C125.804 24.9933 126.431 24.2267 127.164 23.28C127.897 22.3333 128.764 21.1733 129.764 19.8C129.924 19.5867 130.091 19.5 130.264 19.54C130.451 19.58 130.577 19.6933 130.644 19.88C130.724 20.0667 130.684 20.2733 130.524 20.5C129.431 22.1 128.477 23.4333 127.664 24.5C126.864 25.5533 126.171 26.3933 125.584 27.02C124.984 27.6333 124.457 28.0733 124.004 28.34C123.551 28.5933 123.124 28.72 122.724 28.72ZM136.244 28.72C135.657 28.72 135.217 28.6067 134.924 28.38C134.644 28.1667 134.471 27.8933 134.404 27.56C134.337 27.2133 134.337 26.8533 134.404 26.48C134.471 26.0933 134.557 25.74 134.664 25.42L136.024 21.5C136.144 21.1533 136.217 20.84 136.244 20.56C136.284 20.2667 136.237 20.0333 136.104 19.86C135.984 19.6867 135.737 19.6 135.364 19.6C134.911 19.6 134.404 19.8 133.844 20.2C133.297 20.6 132.731 21.16 132.144 21.88C131.557 22.6 130.977 23.4533 130.404 24.44C129.844 25.4133 129.324 26.4867 128.844 27.66L128.744 25.86C129.251 24.62 129.791 23.52 130.364 22.56C130.937 21.5867 131.537 20.76 132.164 20.08C132.791 19.4 133.424 18.8867 134.064 18.54C134.717 18.18 135.371 18 136.024 18C136.637 18 137.111 18.1533 137.444 18.46C137.791 18.7533 137.977 19.1933 138.004 19.78C138.044 20.3667 137.917 21.0933 137.624 21.96L136.444 25.4C136.204 26.0933 136.091 26.5733 136.104 26.84C136.131 27.0933 136.304 27.22 136.624 27.22C136.811 27.22 136.944 27.3 137.024 27.46C137.117 27.6067 137.151 27.78 137.124 27.98C137.111 28.1667 137.031 28.3333 136.884 28.48C136.737 28.64 136.524 28.72 136.244 28.72ZM127.744 28.68C127.531 28.68 127.331 28.6333 127.144 28.54C126.957 28.4467 126.904 28.2733 126.984 28.02L132.064 12.46C132.557 10.9 133.104 9.76667 133.704 9.06C134.317 8.35334 135.051 8 135.904 8C136.344 8 136.717 8.1 137.024 8.3C137.344 8.5 137.591 8.78 137.764 9.14C137.951 9.48667 138.044 9.88667 138.044 10.34C138.044 10.7 137.991 11.0867 137.884 11.5C137.777 11.9 137.624 12.3267 137.424 12.78C137.237 13.22 136.997 13.6867 136.704 14.18C136.424 14.66 136.091 15.1533 135.704 15.66C135.331 16.1533 134.917 16.66 134.464 17.18C134.011 17.6867 133.511 18.2067 132.964 18.74C132.431 19.26 131.857 19.7867 131.244 20.32L128.684 28.16C128.631 28.3333 128.537 28.46 128.404 28.54C128.271 28.6333 128.051 28.68 127.744 28.68ZM131.984 18.06C132.411 17.62 132.811 17.1733 133.184 16.72C133.571 16.2667 133.924 15.8133 134.244 15.36C134.577 14.9067 134.877 14.4667 135.144 14.04C135.411 13.6 135.631 13.1733 135.804 12.76C135.991 12.3467 136.131 11.9533 136.224 11.58C136.331 11.1933 136.384 10.8333 136.384 10.5C136.384 10.3133 136.357 10.1533 136.304 10.02C136.251 9.88667 136.171 9.78667 136.064 9.72C135.957 9.64 135.824 9.6 135.664 9.6C135.451 9.6 135.244 9.69334 135.044 9.88C134.844 10.0533 134.637 10.38 134.424 10.86C134.211 11.34 133.957 12.0267 133.664 12.92L131.984 18.06ZM136.24 28.72C136.053 28.72 135.913 28.64 135.82 28.48C135.726 28.3333 135.693 28.1667 135.72 27.98C135.733 27.78 135.813 27.6067 135.96 27.46C136.106 27.3 136.32 27.22 136.6 27.22C136.946 27.22 137.313 27.0933 137.7 26.84C138.086 26.5867 138.486 26.2333 138.9 25.78C139.3 25.3267 139.713 24.7933 140.14 24.18C140.566 23.5667 141 22.9 141.44 22.18C141.546 22.0067 141.693 21.9333 141.88 21.96C142.066 21.9867 142.22 22.0733 142.34 22.22C142.46 22.3533 142.466 22.5067 142.36 22.68C141.786 23.68 141.24 24.56 140.72 25.32C140.213 26.08 139.72 26.7133 139.24 27.22C138.746 27.7133 138.26 28.0867 137.78 28.34C137.286 28.5933 136.773 28.72 136.24 28.72ZM144.66 28.76C143.833 28.76 143.133 28.5933 142.56 28.26C141.986 27.9267 141.553 27.4667 141.26 26.88C140.98 26.28 140.84 25.6067 140.84 24.86C140.84 24.1533 140.966 23.4067 141.22 22.62C141.473 21.82 141.846 21.0733 142.34 20.38C142.846 19.6733 143.473 19.1 144.22 18.66C144.98 18.22 145.86 18 146.86 18C147.686 18 148.38 18.16 148.94 18.48C149.513 18.7867 149.94 19.2267 150.22 19.8C150.513 20.36 150.66 21.0133 150.66 21.76C150.66 22.2933 150.58 22.88 150.42 23.52C150.273 24.1467 150.04 24.7733 149.72 25.4C149.413 26.0133 149.02 26.5733 148.54 27.08C148.06 27.5867 147.493 27.9933 146.84 28.3C146.2 28.6067 145.473 28.76 144.66 28.76ZM144.86 27.16C145.513 27.16 146.086 26.9867 146.58 26.64C147.073 26.2933 147.486 25.8533 147.82 25.32C148.153 24.7733 148.406 24.2067 148.58 23.62C148.753 23.02 148.84 22.4667 148.84 21.96C148.84 21.44 148.753 21.0067 148.58 20.66C148.406 20.3133 148.16 20.0533 147.84 19.88C147.52 19.6933 147.14 19.6 146.7 19.6C146.033 19.6 145.446 19.7733 144.94 20.12C144.433 20.4533 144.006 20.8867 143.66 21.42C143.326 21.9533 143.073 22.5133 142.9 23.1C142.726 23.6867 142.64 24.2267 142.64 24.72C142.64 25.24 142.726 25.6867 142.9 26.06C143.086 26.42 143.346 26.6933 143.68 26.88C144.013 27.0667 144.406 27.16 144.86 27.16Z" fill="#C9D1D9"/>
</g>
<defs>
<filter id="filter0_d_249_2" x="0" y="0" width="158.66" height="36.76" filterUnits="userSpaceOnUse" color-interpolation-filters="sRGB">
<feFlood flood-opacity="0" result="BackgroundImageFix"/>
<feColorMatrix in="SourceAlpha" type="matrix" values="0 0 0 0 0 0 0 0 0 0 0 0 0 0 0 0 0 0 127 0" result="hardAlpha"/>
<feOffset/>
<feGaussianBlur stdDeviation="4"/>
<feComposite in2="hardAlpha" operator="out"/>
<feColorMatrix type="matrix" values="0 0 0 0 0.0509804 0 0 0 0 0.0666667 0 0 0 0 0.0901961 0 0 0 0.74 0"/>
<feBlend mode="normal" in2="BackgroundImageFix" result="effect1_dropShadow_249_2"/>
<feBlend mode="normal" in="SourceGraphic" in2="effect1_dropShadow_249_2" result="shape"/>
</filter>
</defs>
</svg>